<svg width="27.000000" height="27.000000" viewBox="0 0 27 27" fill="none" xmlns="http://www.w3.org/2000/svg" xmlns:xlink="http://www.w3.org/1999/xlink">
	<desc>
			Created with Pixso.
	</desc>
	<defs>
		<clipPath id="clip215_5764">
			<rect id="bxl:instagram" rx="6.000000" width="27.000000" height="27.000000" fill="white" fill-opacity="0"/>
		</clipPath>
		<linearGradient id="paint_linear_215_5764_0" x1="41.538464" y1="-20.769230" x2="-3.115387" y2="39.461536" gradientUnits="userSpaceOnUse">
			<stop stop-color="#405DE6"/>
			<stop offset="0.197917" stop-color="#5851DB"/>
			<stop offset="0.401042" stop-color="#833AB4"/>
			<stop offset="0.598958" stop-color="#C13584"/>
			<stop offset="0.807292" stop-color="#E1306C"/>
			<stop offset="1.000000" stop-color="#FD1D1D"/>
		</linearGradient>
	</defs>
	<rect id="bxl:instagram" rx="6.000000" width="27.000000" height="27.000000" fill="url(#paint_linear_215_5764_0)" fill-opacity="1.000000"/>
	<g clip-path="url(#clip215_5764)">
		<path id="Vector" d="M13.5 8C12.0413 8 10.6424 8.57935 9.6109 9.61084C8.57947 10.6423 8 12.0413 8 13.5C8 14.9587 8.57947 16.3577 9.6109 17.3892C10.6424 18.4207 12.0413 19 13.5 19C14.9587 19 16.3576 18.4207 17.3891 17.3892C18.4205 16.3577 19 14.9587 19 13.5C19 12.0413 18.4205 10.6423 17.3891 9.61084C16.3576 8.57935 14.9587 8 13.5 8ZM13.5 17.072C12.5524 17.072 11.6435 16.6956 10.9734 16.0254C10.3033 15.3552 9.92691 14.4465 9.92691 13.4988C9.92691 12.5513 10.3033 11.6423 10.9734 10.9722C11.6435 10.3022 12.5524 9.92578 13.5 9.92578C14.4476 9.92578 15.3565 10.3022 16.0266 10.9722C16.6967 11.6423 17.0731 12.5513 17.0731 13.4988C17.0731 14.4465 16.6967 15.3552 16.0266 16.0254C15.3565 16.6956 14.4476 17.072 13.5 17.072Z" fill="#FFFFFF" fill-opacity="1.000000" fill-rule="nonzero"/>
		<path id="Vector" d="M20 8C20 8.55225 19.5523 9 19 9C18.4477 9 18 8.55225 18 8C18 7.44775 18.4477 7 19 7C19.5523 7 20 7.44775 20 8Z" fill="#FFFFFF" fill-opacity="1.000000" fill-rule="evenodd"/>
		<path id="Vector" d="M23.4438 6.61646C23.1738 5.92041 22.7612 5.28833 22.2325 4.7605C21.7038 4.23291 21.0705 3.82129 20.3733 3.552C19.5574 3.24609 18.6954 3.08081 17.8241 3.06299C16.7011 3.01392 16.3454 3 13.4977 3C10.6499 3 10.2849 3 9.17126 3.06299C8.3006 3.07983 7.43924 3.24512 6.62439 3.552C5.92697 3.8208 5.29355 4.23242 4.76477 4.76025C4.23599 5.28784 3.82358 5.92017 3.55392 6.61646C3.24759 7.43091 3.08234 8.29175 3.06531 9.16162C3.01517 10.2817 3 10.637 3 13.4814C3 16.3247 3 16.6868 3.06531 17.801C3.08279 18.6719 3.24722 19.5312 3.55392 20.3474C3.82431 21.0435 4.23715 21.6755 4.76605 22.2031C5.29495 22.731 5.92828 23.1426 6.62555 23.4121C7.43887 23.73 8.30057 23.9072 9.17358 23.936C10.2966 23.9849 10.6523 24 13.5 24C16.3477 24 16.7127 24 17.8264 23.936C18.6976 23.9182 19.5596 23.7534 20.3756 23.448C21.0727 23.1782 21.7057 22.7661 22.2344 22.2383C22.7631 21.7104 23.1758 21.0784 23.4461 20.3823C23.7528 19.5674 23.9172 18.708 23.9347 17.8372C23.9848 16.717 24 16.3621 24 13.5176C24 10.6731 24 10.312 23.9347 9.19775C23.9211 8.31543 23.755 7.44214 23.4438 6.61646ZM22.0234 17.7148C22.0159 18.386 21.8932 19.0508 21.6607 19.6804C21.4856 20.1331 21.2175 20.5442 20.8736 20.8875C20.5298 21.2305 20.1178 21.4978 19.6642 21.6726C19.0406 21.9036 18.3819 22.0261 17.7168 22.0347C16.6089 22.0859 16.2964 22.0986 13.4557 22.0986C10.6126 22.0986 10.3222 22.0986 9.19342 22.0347C8.52863 22.0264 7.87021 21.9041 7.2471 21.6726C6.79196 21.499 6.37833 21.2319 6.03302 20.8889C5.68771 20.5457 5.4184 20.134 5.24249 19.6804C5.01331 19.0574 4.89069 18.4004 4.87982 17.7371C4.82968 16.6309 4.81802 16.3188 4.81802 13.4824C4.81802 10.645 4.81802 10.3552 4.87982 9.22681C4.88736 8.55615 5.01004 7.89185 5.24249 7.2627C5.59818 6.34399 6.32703 5.62085 7.2471 5.26929C7.87051 5.03882 8.52875 4.9165 9.19342 4.90723C10.3024 4.85718 10.6138 4.84326 13.4557 4.84326C16.2976 4.84326 16.5891 4.84326 17.7168 4.90723C18.382 4.91528 19.0408 5.0376 19.6642 5.26929C20.1178 5.44434 20.5297 5.71191 20.8735 6.05518C21.2173 6.39844 21.4855 6.80981 21.6607 7.2627C21.8899 7.8855 22.0125 8.54248 22.0234 9.20581C22.0735 10.3132 22.0864 10.624 22.0864 13.4617C22.0864 16.2979 22.0864 16.603 22.0362 17.7161L22.0234 17.7161L22.0234 17.7148Z" fill="#FFFFFF" fill-opacity="1.000000" fill-rule="nonzero"/>
	</g>
</svg>
