<svg width="27.000000" height="27.000000" viewBox="0 0 27 27" fill="none" xmlns="http://www.w3.org/2000/svg" xmlns:xlink="http://www.w3.org/1999/xlink">
	<desc>
			Created with Pixso.
	</desc>
	<defs/>
	<path id="Vector" d="M4.95959 0L22.0404 0C22.6917 0 23.3366 0.133301 23.9384 0.392578C24.5401 0.651611 25.0868 1.03149 25.5474 1.51025C26.0079 1.98926 26.3732 2.55762 26.6225 3.18335C26.8717 3.80884 27 4.47949 27 5.15649L27 21.8435C27 22.5205 26.8717 23.1912 26.6225 23.8167C26.3732 24.4424 26.0079 25.0107 25.5474 25.4897C25.0868 25.9685 24.5401 26.3484 23.9384 26.6074C23.3366 26.8667 22.6917 27 22.0404 27L4.95959 27C3.64423 27 2.38272 26.4568 1.45264 25.4897C0.522522 24.5227 0 23.2109 0 21.8435L0 5.15649C0 3.78906 0.522522 2.47729 1.45264 1.51025C2.38272 0.543213 3.64423 0 4.95959 0Z" fill="#3B5998" fill-opacity="1.000000" fill-rule="nonzero"/>
	<path id="Vector" d="M10.2164 13.9744L11.7341 13.9744L11.7341 20.4822C11.7341 20.5449 11.7581 20.6052 11.8009 20.6499C11.8437 20.6943 11.9017 20.7192 11.9622 20.7192L14.5412 20.7192C14.5711 20.7192 14.6008 20.7131 14.6285 20.7012C14.6562 20.6892 14.6813 20.6719 14.7025 20.6499C14.7237 20.6277 14.7405 20.6016 14.752 20.5728C14.7634 20.5439 14.7693 20.5132 14.7693 20.4822L14.7693 14.0054L16.5151 14.0054C16.5702 14.0037 16.6231 13.9824 16.6647 13.9448C16.7063 13.907 16.7341 13.8557 16.7433 13.7991L17.0011 11.396C17.0052 11.3633 17.003 11.3301 16.9944 11.2981C16.9859 11.2661 16.9713 11.2363 16.9515 11.2104C16.9057 11.1658 16.8457 11.1401 16.7829 11.1382L14.7991 11.1382L14.7991 9.63257C14.7991 9.17871 15.0272 8.9519 15.4934 8.9519L16.8127 8.9519C16.8603 8.94653 16.9051 8.92578 16.9407 8.89233C16.9763 8.85913 17.0009 8.81494 17.011 8.76636L17.011 6.51807C17.011 6.45508 16.987 6.39478 16.9442 6.35034C16.9015 6.30566 16.8434 6.28076 16.7829 6.28076L14.8884 6.28076C14.05 6.28125 13.2399 6.59619 12.6069 7.16772C12.3094 7.43872 12.0811 7.78198 11.9427 8.16724C11.8042 8.55249 11.7598 8.96729 11.8134 9.37476L11.8134 11.1382L10.2164 11.1382C10.1576 11.1382 10.101 11.1619 10.0585 11.2041C10.016 11.2463 9.99084 11.304 9.98828 11.3652L9.98828 13.7373C9.98828 13.8 10.0123 13.8604 10.0551 13.905C10.0979 13.9495 10.1559 13.9744 10.2164 13.9744Z" fill="#FFFFFF" fill-opacity="1.000000" fill-rule="nonzero"/>
</svg>
