<svg width="40.000000" height="40.000000" viewBox="0 0 40 40" fill="none" xmlns="http://www.w3.org/2000/svg" xmlns:xlink="http://www.w3.org/1999/xlink">
	<desc>
			Created with Pixso.
	</desc>
	<defs>
		<clipPath id="clip200_2344">
			<rect id="akar-icons:instagram-fill" width="40.000000" height="40.000000" fill="white" fill-opacity="0"/>
		</clipPath>
	</defs>
	<rect id="akar-icons:instagram-fill" width="40.000000" height="40.000000" fill="#FFFFFF" fill-opacity="0"/>
	<g clip-path="url(#clip200_2344)">
		<path id="Vector" d="M12.4416 1.77673C14.3966 1.68677 15.02 1.66675 20 1.66675C24.98 1.66675 25.6033 1.68835 27.5566 1.77673C29.51 1.86511 30.8433 2.17676 32.01 2.62842C33.2316 3.09009 34.34 3.81177 35.2566 4.74512C36.19 5.66003 36.91 6.76672 37.37 7.99011C37.8233 9.15674 38.1333 10.4901 38.2233 12.4401C38.3133 14.3984 38.3333 15.0217 38.3333 20.0001C38.3333 24.9801 38.3116 25.6034 38.2233 27.5585C38.135 29.5084 37.8233 30.8418 37.37 32.0084C36.9099 33.2319 36.1888 34.3405 35.2566 35.2567C34.34 36.1901 33.2316 36.91 32.01 37.3701C30.8433 37.8234 29.51 38.1334 27.56 38.2234C25.6033 38.3135 24.98 38.3334 20 38.3334C15.02 38.3334 14.3966 38.3118 12.4416 38.2234C10.4916 38.1351 9.15829 37.8234 7.99162 37.3701C6.76816 36.91 5.65967 36.1888 4.74329 35.2567C3.81059 34.3412 3.08882 33.2333 2.6283 32.0101C2.17662 30.8434 1.86662 29.5101 1.77663 27.5601C1.68663 25.6018 1.66663 24.9784 1.66663 20.0001C1.66663 15.0201 1.68829 14.3967 1.77663 12.4434C1.86496 10.4901 2.17662 9.15674 2.6283 7.99011C3.08949 6.76685 3.81183 5.65894 4.74496 4.74341C5.66003 3.81091 6.76741 3.08911 7.98996 2.62842C9.15663 2.17676 10.49 1.8667 12.44 1.77673L12.4416 1.77673ZM27.4083 5.07678C25.475 4.9884 24.895 4.97009 20 4.97009C15.105 4.97009 14.525 4.9884 12.5916 5.07678C10.8033 5.15845 9.8333 5.45679 9.18663 5.70837C8.33163 6.04175 7.71996 6.43677 7.07829 7.07837C6.47003 7.67017 6.00192 8.3905 5.7083 9.18677C5.45662 9.83337 5.15829 10.8035 5.07663 12.5918C4.9883 14.525 4.96996 15.1051 4.96996 20.0001C4.96996 24.8951 4.9883 25.4751 5.07663 27.4084C5.15829 29.1968 5.45662 30.1667 5.7083 30.8135C6.00163 31.6084 6.46996 32.3301 7.07829 32.9218C7.66997 33.53 8.39163 33.9984 9.18663 34.2917C9.8333 34.5435 10.8033 34.8418 12.5916 34.9235C14.525 35.0117 15.1033 35.03 20 35.03C24.8966 35.03 25.475 35.0117 27.4083 34.9235C29.1966 34.8418 30.1666 34.5435 30.8133 34.2917C31.6683 33.9584 32.28 33.5635 32.9216 32.9218C33.53 32.3301 33.9983 31.6084 34.2916 30.8135C34.5433 30.1667 34.8416 29.1968 34.9233 27.4084C35.0116 25.4751 35.03 24.8951 35.03 20.0001C35.03 15.1051 35.0116 14.525 34.9233 12.5918C34.8416 10.8035 34.5433 9.83337 34.2916 9.18677C33.9583 8.33179 33.5633 7.72009 32.9216 7.07837C32.3298 6.47021 31.6095 6.00208 30.8133 5.70837C30.1666 5.45679 29.1966 5.15845 27.4083 5.07678ZM17.6583 25.6517C18.9661 26.1962 20.4223 26.2697 21.7782 25.8596C23.1341 25.4496 24.3056 24.5817 25.0927 23.4038C25.8797 22.2261 26.2334 20.8115 26.0934 19.402C25.9534 17.9923 25.3283 16.675 24.325 15.675C23.6854 15.0359 22.912 14.5464 22.0605 14.2419C21.209 13.9375 20.3007 13.8257 19.4008 13.9144C18.5009 14.0032 17.6319 14.2904 16.8563 14.7552C16.0807 15.2202 15.4179 15.8513 14.9155 16.6031C14.4131 17.355 14.0836 18.2089 13.9508 19.1034C13.818 19.9978 13.8852 20.9105 14.1475 21.776C14.4098 22.6414 14.8608 23.4377 15.4678 24.1079C16.0749 24.7782 16.823 25.3054 17.6583 25.6517ZM13.3366 13.3368C14.2117 12.4617 15.2505 11.7676 16.3938 11.2941C17.5371 10.8204 18.7625 10.5767 20 10.5767C21.2375 10.5767 22.4628 10.8204 23.6061 11.2941C24.7494 11.7676 25.7883 12.4617 26.6633 13.3368C27.5383 14.2118 28.2325 15.2506 28.706 16.3939C29.1796 17.5372 29.4233 18.7626 29.4233 20.0001C29.4233 21.2375 29.1796 22.463 28.706 23.6062C28.2325 24.7495 27.5383 25.7883 26.6633 26.6635C24.8961 28.4307 22.4992 29.4235 20 29.4235C17.5007 29.4235 15.1039 28.4307 13.3366 26.6635C11.5694 24.8962 10.5766 22.4993 10.5766 20.0001C10.5766 17.5009 11.5694 15.104 13.3366 13.3368ZM31.5133 11.9801C31.7301 11.7755 31.9037 11.5295 32.0238 11.2567C32.1439 10.9839 32.208 10.6897 32.2123 10.3916C32.2167 10.0936 32.1612 9.79761 32.0491 9.52148C31.937 9.24524 31.7707 8.99426 31.5599 8.78345C31.3491 8.57275 31.0982 8.40637 30.8219 8.29431C30.5457 8.18225 30.2498 8.12671 29.9518 8.1311C29.6537 8.13538 29.3595 8.19946 29.0867 8.31958C28.8138 8.4397 28.5678 8.61328 28.3633 8.83008C27.9655 9.25183 27.7477 9.81201 27.7561 10.3916C27.7646 10.9713 27.9986 11.5249 28.4086 11.9348C28.8185 12.3447 29.3721 12.5789 29.9518 12.5873C30.5314 12.5957 31.0916 12.3779 31.5133 11.9801Z" fill="#FFFFFF" fill-opacity="1.000000" fill-rule="evenodd"/>
	</g>
</svg>
