<svg width="27.000000" height="27.000000" viewBox="0 0 27 27" fill="none" xmlns="http://www.w3.org/2000/svg" xmlns:xlink="http://www.w3.org/1999/xlink">
	<defs>
		<clipPath id="clip215_5768">
			<rect id="ci:youtube" rx="6.000000" width="27.000000" height="27.000000" fill="white" fill-opacity="0"/>
		</clipPath>
	</defs>
	<rect id="ci:youtube" rx="6.000000" width="27.000000" height="27.000000" fill="#FFFFFF" fill-opacity="1.000000"/>
	<g clip-path="url(#clip215_5768)">
		<path id="Vector" d="M13.513 21L13.492 21C13.4269 21 6.91919 20.9871 5.27731 20.5322C4.83365 20.4102 4.4292 20.1716 4.1044 19.8398C3.77963 19.5083 3.5459 19.0955 3.42664 18.6428C3.13138 16.9431 2.9888 15.2197 3.00067 13.4937C2.99307 11.7646 3.1395 10.0388 3.43817 8.33691C3.56079 7.88354 3.79562 7.46973 4.12006 7.1355C4.44449 6.80127 4.84769 6.55762 5.29092 6.42822C6.88773 6 13.2161 6 13.4846 6L13.5067 6C13.5728 6 20.0973 6.01294 21.7224 6.46777C22.6236 6.71729 23.3276 7.43555 23.571 8.35522C23.8752 10.0615 24.019 11.7925 23.998 13.5269C24.0053 15.2534 23.8586 16.9773 23.5594 18.677C23.4386 19.1292 23.204 19.5413 22.8788 19.8726C22.5536 20.2036 22.1491 20.4421 21.7056 20.5642C20.111 20.9956 13.7816 21 13.513 21ZM11.4147 10.2874L11.4095 16.7104L16.8775 13.499L11.4147 10.2874Z" fill="#C50F0F" fill-opacity="1.000000" fill-rule="nonzero"/>
	</g>
</svg>
