 <svg
                  width="24.000000"
                  height="24.000000"
                  viewBox="0 0 24 24"
                  fill="none"
                  xmlns="http://www.w3.org/2000/svg"
                  xmlns:xlink="http://www.w3.org/1999/xlink"
                >
                  <defs />
                  <path
                    id="icon"
                    d="M12 2C6.47 2 2 6.46997 2 12C2 17.53 6.47 22 12 22C17.53 22 22 17.53 22 12C22 6.46997 17.53 2 12 2ZM12 20C7.59 20 4 16.4099 4 12C4 7.59009 7.59 4 12 4C16.41 4 20 7.59009 20 12C20 16.4099 16.41 20 12 20ZM12 10.5901L15.59 7L17 8.40991L13.41 12L17 15.5901L15.59 17L12 13.4099L8.41 17L7 15.5901L10.59 12L7 8.40991L8.41 7L12 10.5901Z"
                    fill="#FFFFFF"
                    fill-opacity="0.400000"
                    fill-rule="evenodd"
                  />
                </svg>
