  <svg
                width="32.000000"
                height="32.000000"
                viewBox="0 0 32 32"
                fill="none"
                xmlns="http://www.w3.org/2000/svg"
                xmlns:xlink="http://www.w3.org/1999/xlink"
              >
                <defs>
                  <clippath id="clip182_1707">
                    <rect
                      id="fluent:chat-bubbles-question-16-regular"
                      width="24.000000"
                      height="24.000000"
                      transform="translate(4.000000 3.500000)"
                      fill="white"
                      fill-opacity="0"
                    />
                  </clippath>
                </defs>
                <circle
                  id="Ellipse 759"
                  cx="16.000000"
                  cy="16.000000"
                  r="16.000000"
                  fill="#FFFFFF"
                  fill-opacity="0.100000"
                />
                <circle
                  id="Ellipse 766"
                  cx="28.000000"
                  cy="4.500000"
                  r="4.000000"
                  fill="#EB5757"
                  fill-opacity="1.000000"
                />
                <rect
                  id="question"
                  width="24.000000"
                  height="24.000000"
                  transform="translate(4.000000 3.500000)"
                  fill="#FFFFFF"
                  fill-opacity="0"
                />
                <g clip-path="url(#clip182_1707)">
                  <path
                    id="Vector"
                    d="M14.5 16.8201C14.7487 16.8201 14.9871 16.9189 15.1629 17.0947C15.3387 17.2705 15.4375 17.509 15.4375 17.7576C15.4375 18.0063 15.3387 18.2446 15.1629 18.4204C14.9871 18.5964 14.7487 18.6951 14.5 18.6951C14.2514 18.6951 14.0129 18.5964 13.8371 18.4204C13.6613 18.2446 13.5625 18.0063 13.5625 17.7576C13.5625 17.509 13.6613 17.2705 13.8371 17.0947C14.0129 16.9189 14.2514 16.8201 14.5 16.8201ZM14.5 9.50464C16.0465 9.50464 17.2795 10.7737 17.2795 12.4297C17.2795 13.3086 16.9585 13.7915 16.189 14.4065L15.7735 14.729C15.4045 15.02 15.28 15.1792 15.2545 15.4011L15.238 15.635C15.2046 15.8196 15.1034 15.9849 14.9543 16.0984C14.8051 16.2117 14.6189 16.2654 14.4323 16.2485C14.2456 16.2314 14.0721 16.1453 13.9458 16.0068C13.8195 15.8682 13.7497 15.6875 13.75 15.5C13.75 14.645 14.065 14.1741 14.824 13.5681L15.241 13.2456C15.673 12.9006 15.781 12.7327 15.781 12.4297C15.781 11.5925 15.208 11.0046 14.5 11.0046C13.759 11.0046 13.2115 11.5537 13.2205 12.4221C13.2225 12.6211 13.1454 12.8125 13.0061 12.9546C12.9372 13.0249 12.8551 13.0811 12.7644 13.1196C12.6738 13.1582 12.5765 13.1787 12.478 13.1797C12.2791 13.1816 12.0875 13.1045 11.9455 12.9653C11.8034 12.8259 11.7225 12.636 11.7205 12.437C11.704 10.7302 12.928 9.50464 14.5 9.50464ZM7 14C7.00061 12.3772 7.52765 10.7981 8.50201 9.50024C9.47635 8.20239 10.8454 7.25537 12.4037 6.80176C13.9619 6.34814 15.6253 6.41235 17.1441 6.98438C18.6628 7.55664 19.955 8.60596 20.8266 9.9751C21.6982 11.344 22.1022 12.959 21.978 14.5771C21.8538 16.1953 21.208 17.7295 20.1376 18.9495C19.0672 20.1694 17.63 21.009 16.0417 21.3428C14.4534 21.6763 12.7998 21.4858 11.329 20.7996L7.897 21.4851C7.77603 21.5093 7.65097 21.5032 7.53293 21.4673C7.41486 21.4314 7.30746 21.3672 7.22025 21.2798C7.13303 21.1926 7.06866 21.0852 7.03284 20.9673C6.99704 20.8491 6.99094 20.7241 7.01501 20.603L7.7005 17.1697C7.23764 16.1772 6.9985 15.0952 7 14ZM14.5 8C13.473 7.99976 12.4631 8.26318 11.567 8.76489C10.6709 9.26685 9.91861 9.99023 9.38214 10.866C8.84567 11.7417 8.54297 12.7405 8.50302 13.7668C8.46307 14.793 8.68723 15.8123 9.15402 16.7271C9.23105 16.8779 9.25482 17.05 9.2215 17.2161L8.70551 19.7947L11.284 19.2786C11.45 19.2454 11.6223 19.269 11.773 19.3462C12.5811 19.7578 13.472 19.981 14.3788 19.999C15.2856 20.0168 16.1846 19.8289 17.0082 19.4492C17.8319 19.0698 18.5588 18.5083 19.1343 17.8074C19.7098 17.1064 20.1189 16.2842 20.3309 15.4023C20.5428 14.5205 20.5521 13.6021 20.358 12.7161C20.1639 11.8301 19.7715 10.9998 19.2103 10.2874C18.6491 9.57495 17.9337 8.99902 17.1178 8.60278C16.302 8.20654 15.407 8.00049 14.5 8ZM12.79 22.8381C14.1228 23.916 15.7858 24.5029 17.5 24.5C18.631 24.5 19.705 24.2495 20.6695 23.7996L24.103 24.4851C24.224 24.5093 24.3491 24.5032 24.4671 24.4673C24.5851 24.4314 24.6925 24.3672 24.7798 24.2798C24.867 24.1926 24.9314 24.0852 24.9672 23.9673C25.003 23.8491 25.0091 23.7241 24.985 23.603L24.2995 20.1711C24.7495 19.2065 25 18.1311 25 17C25.0025 15.2864 24.4157 13.624 23.338 12.2915C23.5518 13.4021 23.5553 14.5427 23.3485 15.6545C23.663 17.0291 23.4852 18.4702 22.846 19.7271C22.769 19.8779 22.7452 20.05 22.7785 20.2161L23.2945 22.7947L20.7145 22.2786C20.549 22.2456 20.3773 22.2695 20.227 22.3462C18.97 22.9863 17.5279 23.1641 16.153 22.8486C15.0412 23.0554 13.9005 23.0518 12.79 22.8381Z"
                    fill="#FFFFFF"
                    fill-opacity="1.000000"
                    fill-rule="nonzero"
                  />
                </g>
              </svg>
