 <svg
                    width="72"
                    height="71"
                    viewBox="0 0 66 71"
                    fill="none"
                    xmlns="http://www.w3.org/2000/svg"
                  >
                    <path
                      d="M33.0077 70.62C53.8877 70.62 65.6777 64.05 65.6777 50.415V50.145C65.6777 40.92 60.0977 35.97 51.4577 34.35V33.99C59.2427 32.505 64.6877 27.15 64.6877 19.095V18.87C64.6877 8.115 53.6177 0.644998 33.3677 0.644998C11.6777 0.644998 1.32773 10.68 1.32773 24.45V24.495H19.8227C19.8227 18.555 24.8177 15.045 32.8727 15.045C42.2327 15.045 45.0677 17.97 45.0677 21.795V21.93C45.0677 26.16 42.2777 28.32 34.4477 28.32H25.1327V41.1H34.6277C43.4027 41.1 46.0577 43.395 46.0577 48.03V48.165C46.0577 53.52 41.0627 56.175 32.9627 56.175C24.5477 56.175 18.7877 52.935 18.7877 46.77V46.725H0.0677345V46.86C0.0677345 63.735 12.6227 70.62 33.0077 70.62Z"
                      fill="url(#paint0_linear_182_1017)"
                    />
                    <defs>
                      <lineargradient
                        id="paint0_linear_182_1017"
                        x1="33"
                        y1="1.22222"
                        x2="33"
                        y2="69.5873"
                        gradientUnits="userSpaceOnUse"
                      >
                        <stop stop-color="white" />
                        <stop offset="1" stop-color="white" stop-opacity="0" />
                      </lineargradient>
                    </defs>
                  </svg>
