<svg width="206.000000" height="206.000000" viewBox="0 0 206 206" fill="none" xmlns="http://www.w3.org/2000/svg" xmlns:xlink="http://www.w3.org/1999/xlink">
	<desc>
			Created with Pixso.
	</desc>
	<defs>
		<clipPath id="clip182_257">
			<rect id="16a1d5bcc2c8245bb314e04cbb62a73c 1" rx="14.609929" width="206.000000" height="206.000000" fill="white" fill-opacity="0"/>
		</clipPath>
	</defs>
	<rect id="16a1d5bcc2c8245bb314e04cbb62a73c 1" rx="14.609929" width="206.000000" height="206.000000" fill="#FFFFFF" fill-opacity="0"/>
	<g clip-path="url(#clip182_257)">
		<path id="Vector" d="M14.6099 0L191.39 0C199.459 0 206 6.54114 206 14.61L206 191.39C206 199.459 199.459 206 191.39 206L14.6099 206C6.54109 206 0 199.459 0 191.39L0 14.61C0 6.54114 6.54109 0 14.6099 0Z" fill="#FFFFFF" fill-opacity="1.000000" fill-rule="evenodd"/>
		<path id="Vector" d="M74.9089 12.4849L81.3386 12.4849L81.3386 18.9146L74.9089 18.9146L74.9089 12.4849Z" fill="#000000" fill-opacity="1.000000" fill-rule="evenodd"/>
		<path id="Vector" d="M87.3938 12.4849L93.8235 12.4849L93.8235 18.9146L87.3938 18.9146L87.3938 12.4849Z" fill="#000000" fill-opacity="1.000000" fill-rule="evenodd"/>
		<path id="Vector" d="M112.364 12.4849L118.793 12.4849L118.793 18.9146L112.364 18.9146L112.364 12.4849Z" fill="#000000" fill-opacity="1.000000" fill-rule="evenodd"/>
		<path id="Vector" d="M124.848 12.4849L131.278 12.4849L131.278 18.9146L124.848 18.9146L124.848 12.4849Z" fill="#000000" fill-opacity="1.000000" fill-rule="evenodd"/>
		<path id="Vector" d="M131.091 12.4849L137.52 12.4849L137.52 18.9146L131.091 18.9146L131.091 12.4849Z" fill="#000000" fill-opacity="1.000000" fill-rule="evenodd"/>
		<path id="Vector" d="M137.333 12.4849L143.763 12.4849L143.763 18.9146L137.333 18.9146L137.333 12.4849Z" fill="#000000" fill-opacity="1.000000" fill-rule="evenodd"/>
		<path id="Vector" d="M68.6666 18.7273L75.0963 18.7273L75.0963 25.157L68.6666 25.157L68.6666 18.7273Z" fill="#000000" fill-opacity="1.000000" fill-rule="evenodd"/>
		<path id="Vector" d="M74.9089 18.7273L81.3386 18.7273L81.3386 25.157L74.9089 25.157L74.9089 18.7273Z" fill="#000000" fill-opacity="1.000000" fill-rule="evenodd"/>
		<path id="Vector" d="M87.3938 18.7273L93.8235 18.7273L93.8235 25.157L87.3938 25.157L87.3938 18.7273Z" fill="#000000" fill-opacity="1.000000" fill-rule="evenodd"/>
		<path id="Vector" d="M93.6362 18.7273L100.066 18.7273L100.066 25.157L93.6362 25.157L93.6362 18.7273Z" fill="#000000" fill-opacity="1.000000" fill-rule="evenodd"/>
		<path id="Vector" d="M106.121 18.7273L112.551 18.7273L112.551 25.157L106.121 25.157L106.121 18.7273Z" fill="#000000" fill-opacity="1.000000" fill-rule="evenodd"/>
		<path id="Vector" d="M112.364 18.7273L118.793 18.7273L118.793 25.157L112.364 25.157L112.364 18.7273Z" fill="#000000" fill-opacity="1.000000" fill-rule="evenodd"/>
		<path id="Vector" d="M118.606 18.7273L125.036 18.7273L125.036 25.157L118.606 25.157L118.606 18.7273Z" fill="#000000" fill-opacity="1.000000" fill-rule="evenodd"/>
		<path id="Vector" d="M124.848 18.7273L131.278 18.7273L131.278 25.157L124.848 25.157L124.848 18.7273Z" fill="#000000" fill-opacity="1.000000" fill-rule="evenodd"/>
		<path id="Vector" d="M62.424 24.9697L68.8537 24.9697L68.8537 31.3994L62.424 31.3994L62.424 24.9697Z" fill="#000000" fill-opacity="1.000000" fill-rule="evenodd"/>
		<path id="Vector" d="M74.9089 24.9697L81.3386 24.9697L81.3386 31.3994L74.9089 31.3994L74.9089 24.9697Z" fill="#000000" fill-opacity="1.000000" fill-rule="evenodd"/>
		<path id="Vector" d="M87.3938 24.9697L93.8235 24.9697L93.8235 31.3994L87.3938 31.3994L87.3938 24.9697Z" fill="#000000" fill-opacity="1.000000" fill-rule="evenodd"/>
		<path id="Vector" d="M106.121 24.9697L112.551 24.9697L112.551 31.3994L106.121 31.3994L106.121 24.9697Z" fill="#000000" fill-opacity="1.000000" fill-rule="evenodd"/>
		<path id="Vector" d="M131.091 24.9697L137.52 24.9697L137.52 31.3994L131.091 31.3994L131.091 24.9697Z" fill="#000000" fill-opacity="1.000000" fill-rule="evenodd"/>
		<path id="Vector" d="M137.333 24.9697L143.763 24.9697L143.763 31.3994L137.333 31.3994L137.333 24.9697Z" fill="#000000" fill-opacity="1.000000" fill-rule="evenodd"/>
		<path id="Vector" d="M62.424 31.2122L68.8537 31.2122L68.8537 37.6418L62.424 37.6418L62.424 31.2122Z" fill="#000000" fill-opacity="1.000000" fill-rule="evenodd"/>
		<path id="Vector" d="M68.6666 31.2122L75.0963 31.2122L75.0963 37.6418L68.6666 37.6418L68.6666 31.2122Z" fill="#000000" fill-opacity="1.000000" fill-rule="evenodd"/>
		<path id="Vector" d="M74.9089 31.2122L81.3386 31.2122L81.3386 37.6418L74.9089 37.6418L74.9089 31.2122Z" fill="#000000" fill-opacity="1.000000" fill-rule="evenodd"/>
		<path id="Vector" d="M81.1514 31.2122L87.5811 31.2122L87.5811 37.6418L81.1514 37.6418L81.1514 31.2122Z" fill="#000000" fill-opacity="1.000000" fill-rule="evenodd"/>
		<path id="Vector" d="M87.3938 31.2122L93.8235 31.2122L93.8235 37.6418L87.3938 37.6418L87.3938 31.2122Z" fill="#000000" fill-opacity="1.000000" fill-rule="evenodd"/>
		<path id="Vector" d="M93.6362 31.2122L100.066 31.2122L100.066 37.6418L93.6362 37.6418L93.6362 31.2122Z" fill="#000000" fill-opacity="1.000000" fill-rule="evenodd"/>
		<path id="Vector" d="M106.121 31.2122L112.551 31.2122L112.551 37.6418L106.121 37.6418L106.121 31.2122Z" fill="#000000" fill-opacity="1.000000" fill-rule="evenodd"/>
		<path id="Vector" d="M118.606 31.2122L125.036 31.2122L125.036 37.6418L118.606 37.6418L118.606 31.2122Z" fill="#000000" fill-opacity="1.000000" fill-rule="evenodd"/>
		<path id="Vector" d="M131.091 31.2122L137.52 31.2122L137.52 37.6418L131.091 37.6418L131.091 31.2122Z" fill="#000000" fill-opacity="1.000000" fill-rule="evenodd"/>
		<path id="Vector" d="M62.424 37.4546L68.8537 37.4546L68.8537 43.8843L62.424 43.8843L62.424 37.4546Z" fill="#000000" fill-opacity="1.000000" fill-rule="evenodd"/>
		<path id="Vector" d="M68.6666 37.4546L75.0963 37.4546L75.0963 43.8843L68.6666 43.8843L68.6666 37.4546Z" fill="#000000" fill-opacity="1.000000" fill-rule="evenodd"/>
		<path id="Vector" d="M74.9089 37.4546L81.3386 37.4546L81.3386 43.8843L74.9089 43.8843L74.9089 37.4546Z" fill="#000000" fill-opacity="1.000000" fill-rule="evenodd"/>
		<path id="Vector" d="M81.1514 37.4546L87.5811 37.4546L87.5811 43.8843L81.1514 43.8843L81.1514 37.4546Z" fill="#000000" fill-opacity="1.000000" fill-rule="evenodd"/>
		<path id="Vector" d="M93.6362 37.4546L100.066 37.4546L100.066 43.8843L93.6362 43.8843L93.6362 37.4546Z" fill="#000000" fill-opacity="1.000000" fill-rule="evenodd"/>
		<path id="Vector" d="M112.364 37.4546L118.793 37.4546L118.793 43.8843L112.364 43.8843L112.364 37.4546Z" fill="#000000" fill-opacity="1.000000" fill-rule="evenodd"/>
		<path id="Vector" d="M118.606 37.4546L125.036 37.4546L125.036 43.8843L118.606 43.8843L118.606 37.4546Z" fill="#000000" fill-opacity="1.000000" fill-rule="evenodd"/>
		<path id="Vector" d="M124.848 37.4546L131.278 37.4546L131.278 43.8843L124.848 43.8843L124.848 37.4546Z" fill="#000000" fill-opacity="1.000000" fill-rule="evenodd"/>
		<path id="Vector" d="M131.091 37.4546L137.52 37.4546L137.52 43.8843L131.091 43.8843L131.091 37.4546Z" fill="#000000" fill-opacity="1.000000" fill-rule="evenodd"/>
		<path id="Vector" d="M62.424 43.697L68.8537 43.697L68.8537 50.1267L62.424 50.1267L62.424 43.697Z" fill="#000000" fill-opacity="1.000000" fill-rule="evenodd"/>
		<path id="Vector" d="M74.9089 43.697L81.3386 43.697L81.3386 50.1267L74.9089 50.1267L74.9089 43.697Z" fill="#000000" fill-opacity="1.000000" fill-rule="evenodd"/>
		<path id="Vector" d="M93.6362 43.697L100.066 43.697L100.066 50.1267L93.6362 50.1267L93.6362 43.697Z" fill="#000000" fill-opacity="1.000000" fill-rule="evenodd"/>
		<path id="Vector" d="M99.8787 43.697L106.308 43.697L106.308 50.1267L99.8787 50.1267L99.8787 43.697Z" fill="#000000" fill-opacity="1.000000" fill-rule="evenodd"/>
		<path id="Vector" d="M106.121 43.697L112.551 43.697L112.551 50.1267L106.121 50.1267L106.121 43.697Z" fill="#000000" fill-opacity="1.000000" fill-rule="evenodd"/>
		<path id="Vector" d="M118.606 43.697L125.036 43.697L125.036 50.1267L118.606 50.1267L118.606 43.697Z" fill="#000000" fill-opacity="1.000000" fill-rule="evenodd"/>
		<path id="Vector" d="M137.333 43.697L143.763 43.697L143.763 50.1267L137.333 50.1267L137.333 43.697Z" fill="#000000" fill-opacity="1.000000" fill-rule="evenodd"/>
		<path id="Vector" d="M62.424 49.9395L68.8537 49.9395L68.8537 56.3691L62.424 56.3691L62.424 49.9395Z" fill="#000000" fill-opacity="1.000000" fill-rule="evenodd"/>
		<path id="Vector" d="M74.9089 49.9395L81.3386 49.9395L81.3386 56.3691L74.9089 56.3691L74.9089 49.9395Z" fill="#000000" fill-opacity="1.000000" fill-rule="evenodd"/>
		<path id="Vector" d="M87.3938 49.9395L93.8235 49.9395L93.8235 56.3691L87.3938 56.3691L87.3938 49.9395Z" fill="#000000" fill-opacity="1.000000" fill-rule="evenodd"/>
		<path id="Vector" d="M99.8787 49.9395L106.308 49.9395L106.308 56.3691L99.8787 56.3691L99.8787 49.9395Z" fill="#000000" fill-opacity="1.000000" fill-rule="evenodd"/>
		<path id="Vector" d="M112.364 49.9395L118.793 49.9395L118.793 56.3691L112.364 56.3691L112.364 49.9395Z" fill="#000000" fill-opacity="1.000000" fill-rule="evenodd"/>
		<path id="Vector" d="M124.848 49.9395L131.278 49.9395L131.278 56.3691L124.848 56.3691L124.848 49.9395Z" fill="#000000" fill-opacity="1.000000" fill-rule="evenodd"/>
		<path id="Vector" d="M137.333 49.9395L143.763 49.9395L143.763 56.3691L137.333 56.3691L137.333 49.9395Z" fill="#000000" fill-opacity="1.000000" fill-rule="evenodd"/>
		<path id="Vector" d="M62.424 56.1819L68.8537 56.1819L68.8537 62.6116L62.424 62.6116L62.424 56.1819Z" fill="#000000" fill-opacity="1.000000" fill-rule="evenodd"/>
		<path id="Vector" d="M74.9089 56.1819L81.3386 56.1819L81.3386 62.6116L74.9089 62.6116L74.9089 56.1819Z" fill="#000000" fill-opacity="1.000000" fill-rule="evenodd"/>
		<path id="Vector" d="M81.1514 56.1819L87.5811 56.1819L87.5811 62.6116L81.1514 62.6116L81.1514 56.1819Z" fill="#000000" fill-opacity="1.000000" fill-rule="evenodd"/>
		<path id="Vector" d="M99.8787 56.1819L106.308 56.1819L106.308 62.6116L99.8787 62.6116L99.8787 56.1819Z" fill="#000000" fill-opacity="1.000000" fill-rule="evenodd"/>
		<path id="Vector" d="M106.121 56.1819L112.551 56.1819L112.551 62.6116L106.121 62.6116L106.121 56.1819Z" fill="#000000" fill-opacity="1.000000" fill-rule="evenodd"/>
		<path id="Vector" d="M112.364 56.1819L118.793 56.1819L118.793 62.6116L112.364 62.6116L112.364 56.1819Z" fill="#000000" fill-opacity="1.000000" fill-rule="evenodd"/>
		<path id="Vector" d="M137.333 56.1819L143.763 56.1819L143.763 62.6116L137.333 62.6116L137.333 56.1819Z" fill="#000000" fill-opacity="1.000000" fill-rule="evenodd"/>
		<path id="Vector" d="M12.4847 62.4243L18.9144 62.4243L18.9144 68.854L12.4847 68.854L12.4847 62.4243Z" fill="#000000" fill-opacity="1.000000" fill-rule="evenodd"/>
		<path id="Vector" d="M24.9695 62.4243L31.3992 62.4243L31.3992 68.854L24.9695 68.854L24.9695 62.4243Z" fill="#000000" fill-opacity="1.000000" fill-rule="evenodd"/>
		<path id="Vector" d="M31.212 62.4243L37.6417 62.4243L37.6417 68.854L31.212 68.854L31.212 62.4243Z" fill="#000000" fill-opacity="1.000000" fill-rule="evenodd"/>
		<path id="Vector" d="M37.4545 62.4243L43.8842 62.4243L43.8842 68.854L37.4545 68.854L37.4545 62.4243Z" fill="#000000" fill-opacity="1.000000" fill-rule="evenodd"/>
		<path id="Vector" d="M43.6968 62.4243L50.1265 62.4243L50.1265 68.854L43.6968 68.854L43.6968 62.4243Z" fill="#000000" fill-opacity="1.000000" fill-rule="evenodd"/>
		<path id="Vector" d="M49.9392 62.4243L56.3689 62.4243L56.3689 68.854L49.9392 68.854L49.9392 62.4243Z" fill="#000000" fill-opacity="1.000000" fill-rule="evenodd"/>
		<path id="Vector" d="M74.9089 62.4243L81.3386 62.4243L81.3386 68.854L74.9089 68.854L74.9089 62.4243Z" fill="#000000" fill-opacity="1.000000" fill-rule="evenodd"/>
		<path id="Vector" d="M118.606 62.4243L125.036 62.4243L125.036 68.854L118.606 68.854L118.606 62.4243Z" fill="#000000" fill-opacity="1.000000" fill-rule="evenodd"/>
		<path id="Vector" d="M131.091 62.4243L137.52 62.4243L137.52 68.854L131.091 68.854L131.091 62.4243Z" fill="#000000" fill-opacity="1.000000" fill-rule="evenodd"/>
		<path id="Vector" d="M149.818 62.4243L156.248 62.4243L156.248 68.854L149.818 68.854L149.818 62.4243Z" fill="#000000" fill-opacity="1.000000" fill-rule="evenodd"/>
		<path id="Vector" d="M156.06 62.4243L162.49 62.4243L162.49 68.854L156.06 68.854L156.06 62.4243Z" fill="#000000" fill-opacity="1.000000" fill-rule="evenodd"/>
		<path id="Vector" d="M162.303 62.4243L168.733 62.4243L168.733 68.854L162.303 68.854L162.303 62.4243Z" fill="#000000" fill-opacity="1.000000" fill-rule="evenodd"/>
		<path id="Vector" d="M168.545 62.4243L174.975 62.4243L174.975 68.854L168.545 68.854L168.545 62.4243Z" fill="#000000" fill-opacity="1.000000" fill-rule="evenodd"/>
		<path id="Vector" d="M174.788 62.4243L181.217 62.4243L181.217 68.854L174.788 68.854L174.788 62.4243Z" fill="#000000" fill-opacity="1.000000" fill-rule="evenodd"/>
		<path id="Vector" d="M37.4545 68.6667L43.8842 68.6667L43.8842 75.0964L37.4545 75.0964L37.4545 68.6667Z" fill="#000000" fill-opacity="1.000000" fill-rule="evenodd"/>
		<path id="Vector" d="M56.1816 68.6667L62.6113 68.6667L62.6113 75.0964L56.1816 75.0964L56.1816 68.6667Z" fill="#000000" fill-opacity="1.000000" fill-rule="evenodd"/>
		<path id="Vector" d="M68.6666 68.6667L75.0963 68.6667L75.0963 75.0964L68.6666 75.0964L68.6666 68.6667Z" fill="#000000" fill-opacity="1.000000" fill-rule="evenodd"/>
		<path id="Vector" d="M81.1514 68.6667L87.5811 68.6667L87.5811 75.0964L81.1514 75.0964L81.1514 68.6667Z" fill="#000000" fill-opacity="1.000000" fill-rule="evenodd"/>
		<path id="Vector" d="M93.6362 68.6667L100.066 68.6667L100.066 75.0964L93.6362 75.0964L93.6362 68.6667Z" fill="#000000" fill-opacity="1.000000" fill-rule="evenodd"/>
		<path id="Vector" d="M112.364 68.6667L118.793 68.6667L118.793 75.0964L112.364 75.0964L112.364 68.6667Z" fill="#000000" fill-opacity="1.000000" fill-rule="evenodd"/>
		<path id="Vector" d="M118.606 68.6667L125.036 68.6667L125.036 75.0964L118.606 75.0964L118.606 68.6667Z" fill="#000000" fill-opacity="1.000000" fill-rule="evenodd"/>
		<path id="Vector" d="M124.848 68.6667L131.278 68.6667L131.278 75.0964L124.848 75.0964L124.848 68.6667Z" fill="#000000" fill-opacity="1.000000" fill-rule="evenodd"/>
		<path id="Vector" d="M131.091 68.6667L137.52 68.6667L137.52 75.0964L131.091 75.0964L131.091 68.6667Z" fill="#000000" fill-opacity="1.000000" fill-rule="evenodd"/>
		<path id="Vector" d="M137.333 68.6667L143.763 68.6667L143.763 75.0964L137.333 75.0964L137.333 68.6667Z" fill="#000000" fill-opacity="1.000000" fill-rule="evenodd"/>
		<path id="Vector" d="M143.576 68.6667L150.005 68.6667L150.005 75.0964L143.576 75.0964L143.576 68.6667Z" fill="#000000" fill-opacity="1.000000" fill-rule="evenodd"/>
		<path id="Vector" d="M149.818 68.6667L156.248 68.6667L156.248 75.0964L149.818 75.0964L149.818 68.6667Z" fill="#000000" fill-opacity="1.000000" fill-rule="evenodd"/>
		<path id="Vector" d="M156.06 68.6667L162.49 68.6667L162.49 75.0964L156.06 75.0964L156.06 68.6667Z" fill="#000000" fill-opacity="1.000000" fill-rule="evenodd"/>
		<path id="Vector" d="M162.303 68.6667L168.733 68.6667L168.733 75.0964L162.303 75.0964L162.303 68.6667Z" fill="#000000" fill-opacity="1.000000" fill-rule="evenodd"/>
		<path id="Vector" d="M187.273 68.6667L193.702 68.6667L193.702 75.0964L187.273 75.0964L187.273 68.6667Z" fill="#000000" fill-opacity="1.000000" fill-rule="evenodd"/>
		<path id="Vector" d="M12.4847 74.9092L18.9144 74.9092L18.9144 81.3389L12.4847 81.3389L12.4847 74.9092Z" fill="#000000" fill-opacity="1.000000" fill-rule="evenodd"/>
		<path id="Vector" d="M31.212 74.9092L37.6417 74.9092L37.6417 81.3389L31.212 81.3389L31.212 74.9092Z" fill="#000000" fill-opacity="1.000000" fill-rule="evenodd"/>
		<path id="Vector" d="M37.4545 74.9092L43.8842 74.9092L43.8842 81.3389L37.4545 81.3389L37.4545 74.9092Z" fill="#000000" fill-opacity="1.000000" fill-rule="evenodd"/>
		<path id="Vector" d="M49.9392 74.9092L56.3689 74.9092L56.3689 81.3389L49.9392 81.3389L49.9392 74.9092Z" fill="#000000" fill-opacity="1.000000" fill-rule="evenodd"/>
		<path id="Vector" d="M56.1816 74.9092L62.6113 74.9092L62.6113 81.3389L56.1816 81.3389L56.1816 74.9092Z" fill="#000000" fill-opacity="1.000000" fill-rule="evenodd"/>
		<path id="Vector" d="M68.6666 74.9092L75.0963 74.9092L75.0963 81.3389L68.6666 81.3389L68.6666 74.9092Z" fill="#000000" fill-opacity="1.000000" fill-rule="evenodd"/>
		<path id="Vector" d="M74.9089 74.9092L81.3386 74.9092L81.3386 81.3389L74.9089 81.3389L74.9089 74.9092Z" fill="#000000" fill-opacity="1.000000" fill-rule="evenodd"/>
		<path id="Vector" d="M81.1514 74.9092L87.5811 74.9092L87.5811 81.3389L81.1514 81.3389L81.1514 74.9092Z" fill="#000000" fill-opacity="1.000000" fill-rule="evenodd"/>
		<path id="Vector" d="M93.6362 74.9092L100.066 74.9092L100.066 81.3389L93.6362 81.3389L93.6362 74.9092Z" fill="#000000" fill-opacity="1.000000" fill-rule="evenodd"/>
		<path id="Vector" d="M99.8787 74.9092L106.308 74.9092L106.308 81.3389L99.8787 81.3389L99.8787 74.9092Z" fill="#000000" fill-opacity="1.000000" fill-rule="evenodd"/>
		<path id="Vector" d="M106.121 74.9092L112.551 74.9092L112.551 81.3389L106.121 81.3389L106.121 74.9092Z" fill="#000000" fill-opacity="1.000000" fill-rule="evenodd"/>
		<path id="Vector" d="M112.364 74.9092L118.793 74.9092L118.793 81.3389L112.364 81.3389L112.364 74.9092Z" fill="#000000" fill-opacity="1.000000" fill-rule="evenodd"/>
		<path id="Vector" d="M137.333 74.9092L143.763 74.9092L143.763 81.3389L137.333 81.3389L137.333 74.9092Z" fill="#000000" fill-opacity="1.000000" fill-rule="evenodd"/>
		<path id="Vector" d="M143.576 74.9092L150.005 74.9092L150.005 81.3389L143.576 81.3389L143.576 74.9092Z" fill="#000000" fill-opacity="1.000000" fill-rule="evenodd"/>
		<path id="Vector" d="M149.818 74.9092L156.248 74.9092L156.248 81.3389L149.818 81.3389L149.818 74.9092Z" fill="#000000" fill-opacity="1.000000" fill-rule="evenodd"/>
		<path id="Vector" d="M31.212 81.1516L37.6417 81.1516L37.6417 87.5813L31.212 87.5813L31.212 81.1516Z" fill="#000000" fill-opacity="1.000000" fill-rule="evenodd"/>
		<path id="Vector" d="M37.4545 81.1516L43.8842 81.1516L43.8842 87.5813L37.4545 87.5813L37.4545 81.1516Z" fill="#000000" fill-opacity="1.000000" fill-rule="evenodd"/>
		<path id="Vector" d="M43.6968 81.1516L50.1265 81.1516L50.1265 87.5813L43.6968 87.5813L43.6968 81.1516Z" fill="#000000" fill-opacity="1.000000" fill-rule="evenodd"/>
		<path id="Vector" d="M56.1816 81.1516L62.6113 81.1516L62.6113 87.5813L56.1816 87.5813L56.1816 81.1516Z" fill="#000000" fill-opacity="1.000000" fill-rule="evenodd"/>
		<path id="Vector" d="M62.424 81.1516L68.8537 81.1516L68.8537 87.5813L62.424 87.5813L62.424 81.1516Z" fill="#000000" fill-opacity="1.000000" fill-rule="evenodd"/>
		<path id="Vector" d="M81.1514 81.1516L87.5811 81.1516L87.5811 87.5813L81.1514 87.5813L81.1514 81.1516Z" fill="#000000" fill-opacity="1.000000" fill-rule="evenodd"/>
		<path id="Vector" d="M93.6362 81.1516L100.066 81.1516L100.066 87.5813L93.6362 87.5813L93.6362 81.1516Z" fill="#000000" fill-opacity="1.000000" fill-rule="evenodd"/>
		<path id="Vector" d="M112.364 81.1516L118.793 81.1516L118.793 87.5813L112.364 87.5813L112.364 81.1516Z" fill="#000000" fill-opacity="1.000000" fill-rule="evenodd"/>
		<path id="Vector" d="M156.06 81.1516L162.49 81.1516L162.49 87.5813L156.06 87.5813L156.06 81.1516Z" fill="#000000" fill-opacity="1.000000" fill-rule="evenodd"/>
		<path id="Vector" d="M168.545 81.1516L174.975 81.1516L174.975 87.5813L168.545 87.5813L168.545 81.1516Z" fill="#000000" fill-opacity="1.000000" fill-rule="evenodd"/>
		<path id="Vector" d="M181.03 81.1516L187.46 81.1516L187.46 87.5813L181.03 87.5813L181.03 81.1516Z" fill="#000000" fill-opacity="1.000000" fill-rule="evenodd"/>
		<path id="Vector" d="M12.4847 87.394L18.9144 87.394L18.9144 93.8237L12.4847 93.8237L12.4847 87.394Z" fill="#000000" fill-opacity="1.000000" fill-rule="evenodd"/>
		<path id="Vector" d="M24.9695 87.394L31.3992 87.394L31.3992 93.8237L24.9695 93.8237L24.9695 87.394Z" fill="#000000" fill-opacity="1.000000" fill-rule="evenodd"/>
		<path id="Vector" d="M43.6968 87.394L50.1265 87.394L50.1265 93.8237L43.6968 93.8237L43.6968 87.394Z" fill="#000000" fill-opacity="1.000000" fill-rule="evenodd"/>
		<path id="Vector" d="M49.9392 87.394L56.3689 87.394L56.3689 93.8237L49.9392 93.8237L49.9392 87.394Z" fill="#000000" fill-opacity="1.000000" fill-rule="evenodd"/>
		<path id="Vector" d="M62.424 87.394L68.8537 87.394L68.8537 93.8237L62.424 93.8237L62.424 87.394Z" fill="#000000" fill-opacity="1.000000" fill-rule="evenodd"/>
		<path id="Vector" d="M68.6666 87.394L75.0963 87.394L75.0963 93.8237L68.6666 93.8237L68.6666 87.394Z" fill="#000000" fill-opacity="1.000000" fill-rule="evenodd"/>
		<path id="Vector" d="M99.8787 87.394L106.308 87.394L106.308 93.8237L99.8787 93.8237L99.8787 87.394Z" fill="#000000" fill-opacity="1.000000" fill-rule="evenodd"/>
		<path id="Vector" d="M106.121 87.394L112.551 87.394L112.551 93.8237L106.121 93.8237L106.121 87.394Z" fill="#000000" fill-opacity="1.000000" fill-rule="evenodd"/>
		<path id="Vector" d="M118.606 87.394L125.036 87.394L125.036 93.8237L118.606 93.8237L118.606 87.394Z" fill="#000000" fill-opacity="1.000000" fill-rule="evenodd"/>
		<path id="Vector" d="M124.848 87.394L131.278 87.394L131.278 93.8237L124.848 93.8237L124.848 87.394Z" fill="#000000" fill-opacity="1.000000" fill-rule="evenodd"/>
		<path id="Vector" d="M168.545 87.394L174.975 87.394L174.975 93.8237L168.545 93.8237L168.545 87.394Z" fill="#000000" fill-opacity="1.000000" fill-rule="evenodd"/>
		<path id="Vector" d="M174.788 87.394L181.217 87.394L181.217 93.8237L174.788 93.8237L174.788 87.394Z" fill="#000000" fill-opacity="1.000000" fill-rule="evenodd"/>
		<path id="Vector" d="M12.4847 93.6362L18.9144 93.6362L18.9144 100.066L12.4847 100.066L12.4847 93.6362Z" fill="#000000" fill-opacity="1.000000" fill-rule="evenodd"/>
		<path id="Vector" d="M18.7271 93.6362L25.1568 93.6362L25.1568 100.066L18.7271 100.066L18.7271 93.6362Z" fill="#000000" fill-opacity="1.000000" fill-rule="evenodd"/>
		<path id="Vector" d="M62.424 93.6362L68.8537 93.6362L68.8537 100.066L62.424 100.066L62.424 93.6362Z" fill="#000000" fill-opacity="1.000000" fill-rule="evenodd"/>
		<path id="Vector" d="M87.3938 93.6362L93.8235 93.6362L93.8235 100.066L87.3938 100.066L87.3938 93.6362Z" fill="#000000" fill-opacity="1.000000" fill-rule="evenodd"/>
		<path id="Vector" d="M112.364 93.6362L118.793 93.6362L118.793 100.066L112.364 100.066L112.364 93.6362Z" fill="#000000" fill-opacity="1.000000" fill-rule="evenodd"/>
		<path id="Vector" d="M118.606 93.6362L125.036 93.6362L125.036 100.066L118.606 100.066L118.606 93.6362Z" fill="#000000" fill-opacity="1.000000" fill-rule="evenodd"/>
		<path id="Vector" d="M124.848 93.6362L131.278 93.6362L131.278 100.066L124.848 100.066L124.848 93.6362Z" fill="#000000" fill-opacity="1.000000" fill-rule="evenodd"/>
		<path id="Vector" d="M131.091 93.6362L137.52 93.6362L137.52 100.066L131.091 100.066L131.091 93.6362Z" fill="#000000" fill-opacity="1.000000" fill-rule="evenodd"/>
		<path id="Vector" d="M137.333 93.6362L143.763 93.6362L143.763 100.066L137.333 100.066L137.333 93.6362Z" fill="#000000" fill-opacity="1.000000" fill-rule="evenodd"/>
		<path id="Vector" d="M143.576 93.6362L150.005 93.6362L150.005 100.066L143.576 100.066L143.576 93.6362Z" fill="#000000" fill-opacity="1.000000" fill-rule="evenodd"/>
		<path id="Vector" d="M149.818 93.6362L156.248 93.6362L156.248 100.066L149.818 100.066L149.818 93.6362Z" fill="#000000" fill-opacity="1.000000" fill-rule="evenodd"/>
		<path id="Vector" d="M162.303 93.6362L168.733 93.6362L168.733 100.066L162.303 100.066L162.303 93.6362Z" fill="#000000" fill-opacity="1.000000" fill-rule="evenodd"/>
		<path id="Vector" d="M187.273 93.6362L193.702 93.6362L193.702 100.066L187.273 100.066L187.273 93.6362Z" fill="#000000" fill-opacity="1.000000" fill-rule="evenodd"/>
		<path id="Vector" d="M31.212 99.8789L37.6417 99.8789L37.6417 106.309L31.212 106.309L31.212 99.8789Z" fill="#000000" fill-opacity="1.000000" fill-rule="evenodd"/>
		<path id="Vector" d="M37.4545 99.8789L43.8842 99.8789L43.8842 106.309L37.4545 106.309L37.4545 99.8789Z" fill="#000000" fill-opacity="1.000000" fill-rule="evenodd"/>
		<path id="Vector" d="M43.6968 99.8789L50.1265 99.8789L50.1265 106.309L43.6968 106.309L43.6968 99.8789Z" fill="#000000" fill-opacity="1.000000" fill-rule="evenodd"/>
		<path id="Vector" d="M49.9392 99.8789L56.3689 99.8789L56.3689 106.309L49.9392 106.309L49.9392 99.8789Z" fill="#000000" fill-opacity="1.000000" fill-rule="evenodd"/>
		<path id="Vector" d="M68.6666 99.8789L75.0963 99.8789L75.0963 106.309L68.6666 106.309L68.6666 99.8789Z" fill="#000000" fill-opacity="1.000000" fill-rule="evenodd"/>
		<path id="Vector" d="M106.121 99.8789L112.551 99.8789L112.551 106.309L106.121 106.309L106.121 99.8789Z" fill="#000000" fill-opacity="1.000000" fill-rule="evenodd"/>
		<path id="Vector" d="M112.364 99.8789L118.793 99.8789L118.793 106.309L112.364 106.309L112.364 99.8789Z" fill="#000000" fill-opacity="1.000000" fill-rule="evenodd"/>
		<path id="Vector" d="M118.606 99.8789L125.036 99.8789L125.036 106.309L118.606 106.309L118.606 99.8789Z" fill="#000000" fill-opacity="1.000000" fill-rule="evenodd"/>
		<path id="Vector" d="M149.818 99.8789L156.248 99.8789L156.248 106.309L149.818 106.309L149.818 99.8789Z" fill="#000000" fill-opacity="1.000000" fill-rule="evenodd"/>
		<path id="Vector" d="M156.06 99.8789L162.49 99.8789L162.49 106.309L156.06 106.309L156.06 99.8789Z" fill="#000000" fill-opacity="1.000000" fill-rule="evenodd"/>
		<path id="Vector" d="M168.545 99.8789L174.975 99.8789L174.975 106.309L168.545 106.309L168.545 99.8789Z" fill="#000000" fill-opacity="1.000000" fill-rule="evenodd"/>
		<path id="Vector" d="M174.788 99.8789L181.217 99.8789L181.217 106.309L174.788 106.309L174.788 99.8789Z" fill="#000000" fill-opacity="1.000000" fill-rule="evenodd"/>
		<path id="Vector" d="M24.9695 106.121L31.3992 106.121L31.3992 112.551L24.9695 112.551L24.9695 106.121Z" fill="#000000" fill-opacity="1.000000" fill-rule="evenodd"/>
		<path id="Vector" d="M31.212 106.121L37.6417 106.121L37.6417 112.551L31.212 112.551L31.212 106.121Z" fill="#000000" fill-opacity="1.000000" fill-rule="evenodd"/>
		<path id="Vector" d="M37.4545 106.121L43.8842 106.121L43.8842 112.551L37.4545 112.551L37.4545 106.121Z" fill="#000000" fill-opacity="1.000000" fill-rule="evenodd"/>
		<path id="Vector" d="M81.1514 106.121L87.5811 106.121L87.5811 112.551L81.1514 112.551L81.1514 106.121Z" fill="#000000" fill-opacity="1.000000" fill-rule="evenodd"/>
		<path id="Vector" d="M99.8787 106.121L106.308 106.121L106.308 112.551L99.8787 112.551L99.8787 106.121Z" fill="#000000" fill-opacity="1.000000" fill-rule="evenodd"/>
		<path id="Vector" d="M106.121 106.121L112.551 106.121L112.551 112.551L106.121 112.551L106.121 106.121Z" fill="#000000" fill-opacity="1.000000" fill-rule="evenodd"/>
		<path id="Vector" d="M131.091 106.121L137.52 106.121L137.52 112.551L131.091 112.551L131.091 106.121Z" fill="#000000" fill-opacity="1.000000" fill-rule="evenodd"/>
		<path id="Vector" d="M143.576 106.121L150.005 106.121L150.005 112.551L143.576 112.551L143.576 106.121Z" fill="#000000" fill-opacity="1.000000" fill-rule="evenodd"/>
		<path id="Vector" d="M149.818 106.121L156.248 106.121L156.248 112.551L149.818 112.551L149.818 106.121Z" fill="#000000" fill-opacity="1.000000" fill-rule="evenodd"/>
		<path id="Vector" d="M156.06 106.121L162.49 106.121L162.49 112.551L156.06 112.551L156.06 106.121Z" fill="#000000" fill-opacity="1.000000" fill-rule="evenodd"/>
		<path id="Vector" d="M162.303 106.121L168.733 106.121L168.733 112.551L162.303 112.551L162.303 106.121Z" fill="#000000" fill-opacity="1.000000" fill-rule="evenodd"/>
		<path id="Vector" d="M181.03 106.121L187.46 106.121L187.46 112.551L181.03 112.551L181.03 106.121Z" fill="#000000" fill-opacity="1.000000" fill-rule="evenodd"/>
		<path id="Vector" d="M12.4847 112.364L18.9144 112.364L18.9144 118.793L12.4847 118.793L12.4847 112.364Z" fill="#000000" fill-opacity="1.000000" fill-rule="evenodd"/>
		<path id="Vector" d="M24.9695 112.364L31.3992 112.364L31.3992 118.793L24.9695 118.793L24.9695 112.364Z" fill="#000000" fill-opacity="1.000000" fill-rule="evenodd"/>
		<path id="Vector" d="M37.4545 112.364L43.8842 112.364L43.8842 118.793L37.4545 118.793L37.4545 112.364Z" fill="#000000" fill-opacity="1.000000" fill-rule="evenodd"/>
		<path id="Vector" d="M49.9392 112.364L56.3689 112.364L56.3689 118.793L49.9392 118.793L49.9392 112.364Z" fill="#000000" fill-opacity="1.000000" fill-rule="evenodd"/>
		<path id="Vector" d="M68.6666 112.364L75.0963 112.364L75.0963 118.793L68.6666 118.793L68.6666 112.364Z" fill="#000000" fill-opacity="1.000000" fill-rule="evenodd"/>
		<path id="Vector" d="M74.9089 112.364L81.3386 112.364L81.3386 118.793L74.9089 118.793L74.9089 112.364Z" fill="#000000" fill-opacity="1.000000" fill-rule="evenodd"/>
		<path id="Vector" d="M81.1514 112.364L87.5811 112.364L87.5811 118.793L81.1514 118.793L81.1514 112.364Z" fill="#000000" fill-opacity="1.000000" fill-rule="evenodd"/>
		<path id="Vector" d="M106.121 112.364L112.551 112.364L112.551 118.793L106.121 118.793L106.121 112.364Z" fill="#000000" fill-opacity="1.000000" fill-rule="evenodd"/>
		<path id="Vector" d="M118.606 112.364L125.036 112.364L125.036 118.793L118.606 118.793L118.606 112.364Z" fill="#000000" fill-opacity="1.000000" fill-rule="evenodd"/>
		<path id="Vector" d="M137.333 112.364L143.763 112.364L143.763 118.793L137.333 118.793L137.333 112.364Z" fill="#000000" fill-opacity="1.000000" fill-rule="evenodd"/>
		<path id="Vector" d="M156.06 112.364L162.49 112.364L162.49 118.793L156.06 118.793L156.06 112.364Z" fill="#000000" fill-opacity="1.000000" fill-rule="evenodd"/>
		<path id="Vector" d="M168.545 112.364L174.975 112.364L174.975 118.793L168.545 118.793L168.545 112.364Z" fill="#000000" fill-opacity="1.000000" fill-rule="evenodd"/>
		<path id="Vector" d="M174.788 112.364L181.217 112.364L181.217 118.793L174.788 118.793L174.788 112.364Z" fill="#000000" fill-opacity="1.000000" fill-rule="evenodd"/>
		<path id="Vector" d="M12.4847 118.606L18.9144 118.606L18.9144 125.036L12.4847 125.036L12.4847 118.606Z" fill="#000000" fill-opacity="1.000000" fill-rule="evenodd"/>
		<path id="Vector" d="M18.7271 118.606L25.1568 118.606L25.1568 125.036L18.7271 125.036L18.7271 118.606Z" fill="#000000" fill-opacity="1.000000" fill-rule="evenodd"/>
		<path id="Vector" d="M24.9695 118.606L31.3992 118.606L31.3992 125.036L24.9695 125.036L24.9695 118.606Z" fill="#000000" fill-opacity="1.000000" fill-rule="evenodd"/>
		<path id="Vector" d="M31.212 118.606L37.6417 118.606L37.6417 125.036L31.212 125.036L31.212 118.606Z" fill="#000000" fill-opacity="1.000000" fill-rule="evenodd"/>
		<path id="Vector" d="M37.4545 118.606L43.8842 118.606L43.8842 125.036L37.4545 125.036L37.4545 118.606Z" fill="#000000" fill-opacity="1.000000" fill-rule="evenodd"/>
		<path id="Vector" d="M74.9089 118.606L81.3386 118.606L81.3386 125.036L74.9089 125.036L74.9089 118.606Z" fill="#000000" fill-opacity="1.000000" fill-rule="evenodd"/>
		<path id="Vector" d="M81.1514 118.606L87.5811 118.606L87.5811 125.036L81.1514 125.036L81.1514 118.606Z" fill="#000000" fill-opacity="1.000000" fill-rule="evenodd"/>
		<path id="Vector" d="M87.3938 118.606L93.8235 118.606L93.8235 125.036L87.3938 125.036L87.3938 118.606Z" fill="#000000" fill-opacity="1.000000" fill-rule="evenodd"/>
		<path id="Vector" d="M93.6362 118.606L100.066 118.606L100.066 125.036L93.6362 125.036L93.6362 118.606Z" fill="#000000" fill-opacity="1.000000" fill-rule="evenodd"/>
		<path id="Vector" d="M99.8787 118.606L106.308 118.606L106.308 125.036L99.8787 125.036L99.8787 118.606Z" fill="#000000" fill-opacity="1.000000" fill-rule="evenodd"/>
		<path id="Vector" d="M112.364 118.606L118.793 118.606L118.793 125.036L112.364 125.036L112.364 118.606Z" fill="#000000" fill-opacity="1.000000" fill-rule="evenodd"/>
		<path id="Vector" d="M131.091 118.606L137.52 118.606L137.52 125.036L131.091 125.036L131.091 118.606Z" fill="#000000" fill-opacity="1.000000" fill-rule="evenodd"/>
		<path id="Vector" d="M137.333 118.606L143.763 118.606L143.763 125.036L137.333 125.036L137.333 118.606Z" fill="#000000" fill-opacity="1.000000" fill-rule="evenodd"/>
		<path id="Vector" d="M149.818 118.606L156.248 118.606L156.248 125.036L149.818 125.036L149.818 118.606Z" fill="#000000" fill-opacity="1.000000" fill-rule="evenodd"/>
		<path id="Vector" d="M156.06 118.606L162.49 118.606L162.49 125.036L156.06 125.036L156.06 118.606Z" fill="#000000" fill-opacity="1.000000" fill-rule="evenodd"/>
		<path id="Vector" d="M162.303 118.606L168.733 118.606L168.733 125.036L162.303 125.036L162.303 118.606Z" fill="#000000" fill-opacity="1.000000" fill-rule="evenodd"/>
		<path id="Vector" d="M174.788 118.606L181.217 118.606L181.217 125.036L174.788 125.036L174.788 118.606Z" fill="#000000" fill-opacity="1.000000" fill-rule="evenodd"/>
		<path id="Vector" d="M187.273 118.606L193.702 118.606L193.702 125.036L187.273 125.036L187.273 118.606Z" fill="#000000" fill-opacity="1.000000" fill-rule="evenodd"/>
		<path id="Vector" d="M12.4847 124.848L18.9144 124.848L18.9144 131.278L12.4847 131.278L12.4847 124.848Z" fill="#000000" fill-opacity="1.000000" fill-rule="evenodd"/>
		<path id="Vector" d="M24.9695 124.848L31.3992 124.848L31.3992 131.278L24.9695 131.278L24.9695 124.848Z" fill="#000000" fill-opacity="1.000000" fill-rule="evenodd"/>
		<path id="Vector" d="M31.212 124.848L37.6417 124.848L37.6417 131.278L31.212 131.278L31.212 124.848Z" fill="#000000" fill-opacity="1.000000" fill-rule="evenodd"/>
		<path id="Vector" d="M37.4545 124.848L43.8842 124.848L43.8842 131.278L37.4545 131.278L37.4545 124.848Z" fill="#000000" fill-opacity="1.000000" fill-rule="evenodd"/>
		<path id="Vector" d="M43.6968 124.848L50.1265 124.848L50.1265 131.278L43.6968 131.278L43.6968 124.848Z" fill="#000000" fill-opacity="1.000000" fill-rule="evenodd"/>
		<path id="Vector" d="M49.9392 124.848L56.3689 124.848L56.3689 131.278L49.9392 131.278L49.9392 124.848Z" fill="#000000" fill-opacity="1.000000" fill-rule="evenodd"/>
		<path id="Vector" d="M56.1816 124.848L62.6113 124.848L62.6113 131.278L56.1816 131.278L56.1816 124.848Z" fill="#000000" fill-opacity="1.000000" fill-rule="evenodd"/>
		<path id="Vector" d="M62.424 124.848L68.8537 124.848L68.8537 131.278L62.424 131.278L62.424 124.848Z" fill="#000000" fill-opacity="1.000000" fill-rule="evenodd"/>
		<path id="Vector" d="M93.6362 124.848L100.066 124.848L100.066 131.278L93.6362 131.278L93.6362 124.848Z" fill="#000000" fill-opacity="1.000000" fill-rule="evenodd"/>
		<path id="Vector" d="M99.8787 124.848L106.308 124.848L106.308 131.278L99.8787 131.278L99.8787 124.848Z" fill="#000000" fill-opacity="1.000000" fill-rule="evenodd"/>
		<path id="Vector" d="M106.121 124.848L112.551 124.848L112.551 131.278L106.121 131.278L106.121 124.848Z" fill="#000000" fill-opacity="1.000000" fill-rule="evenodd"/>
		<path id="Vector" d="M118.606 124.848L125.036 124.848L125.036 131.278L118.606 131.278L118.606 124.848Z" fill="#000000" fill-opacity="1.000000" fill-rule="evenodd"/>
		<path id="Vector" d="M137.333 124.848L143.763 124.848L143.763 131.278L137.333 131.278L137.333 124.848Z" fill="#000000" fill-opacity="1.000000" fill-rule="evenodd"/>
		<path id="Vector" d="M143.576 124.848L150.005 124.848L150.005 131.278L143.576 131.278L143.576 124.848Z" fill="#000000" fill-opacity="1.000000" fill-rule="evenodd"/>
		<path id="Vector" d="M156.06 124.848L162.49 124.848L162.49 131.278L156.06 131.278L156.06 124.848Z" fill="#000000" fill-opacity="1.000000" fill-rule="evenodd"/>
		<path id="Vector" d="M174.788 124.848L181.217 124.848L181.217 131.278L174.788 131.278L174.788 124.848Z" fill="#000000" fill-opacity="1.000000" fill-rule="evenodd"/>
		<path id="Vector" d="M12.4847 131.091L18.9144 131.091L18.9144 137.521L12.4847 137.521L12.4847 131.091Z" fill="#000000" fill-opacity="1.000000" fill-rule="evenodd"/>
		<path id="Vector" d="M24.9695 131.091L31.3992 131.091L31.3992 137.521L24.9695 137.521L24.9695 131.091Z" fill="#000000" fill-opacity="1.000000" fill-rule="evenodd"/>
		<path id="Vector" d="M31.212 131.091L37.6417 131.091L37.6417 137.521L31.212 137.521L31.212 131.091Z" fill="#000000" fill-opacity="1.000000" fill-rule="evenodd"/>
		<path id="Vector" d="M62.424 131.091L68.8537 131.091L68.8537 137.521L62.424 137.521L62.424 131.091Z" fill="#000000" fill-opacity="1.000000" fill-rule="evenodd"/>
		<path id="Vector" d="M93.6362 131.091L100.066 131.091L100.066 137.521L93.6362 137.521L93.6362 131.091Z" fill="#000000" fill-opacity="1.000000" fill-rule="evenodd"/>
		<path id="Vector" d="M106.121 131.091L112.551 131.091L112.551 137.521L106.121 137.521L106.121 131.091Z" fill="#000000" fill-opacity="1.000000" fill-rule="evenodd"/>
		<path id="Vector" d="M112.364 131.091L118.793 131.091L118.793 137.521L112.364 137.521L112.364 131.091Z" fill="#000000" fill-opacity="1.000000" fill-rule="evenodd"/>
		<path id="Vector" d="M124.848 131.091L131.278 131.091L131.278 137.521L124.848 137.521L124.848 131.091Z" fill="#000000" fill-opacity="1.000000" fill-rule="evenodd"/>
		<path id="Vector" d="M131.091 131.091L137.52 131.091L137.52 137.521L131.091 137.521L131.091 131.091Z" fill="#000000" fill-opacity="1.000000" fill-rule="evenodd"/>
		<path id="Vector" d="M137.333 131.091L143.763 131.091L143.763 137.521L137.333 137.521L137.333 131.091Z" fill="#000000" fill-opacity="1.000000" fill-rule="evenodd"/>
		<path id="Vector" d="M149.818 131.091L156.248 131.091L156.248 137.521L149.818 137.521L149.818 131.091Z" fill="#000000" fill-opacity="1.000000" fill-rule="evenodd"/>
		<path id="Vector" d="M156.06 131.091L162.49 131.091L162.49 137.521L156.06 137.521L156.06 131.091Z" fill="#000000" fill-opacity="1.000000" fill-rule="evenodd"/>
		<path id="Vector" d="M162.303 131.091L168.733 131.091L168.733 137.521L162.303 137.521L162.303 131.091Z" fill="#000000" fill-opacity="1.000000" fill-rule="evenodd"/>
		<path id="Vector" d="M181.03 131.091L187.46 131.091L187.46 137.521L181.03 137.521L181.03 131.091Z" fill="#000000" fill-opacity="1.000000" fill-rule="evenodd"/>
		<path id="Vector" d="M12.4847 137.333L18.9144 137.333L18.9144 143.763L12.4847 143.763L12.4847 137.333Z" fill="#000000" fill-opacity="1.000000" fill-rule="evenodd"/>
		<path id="Vector" d="M24.9695 137.333L31.3992 137.333L31.3992 143.763L24.9695 143.763L24.9695 137.333Z" fill="#000000" fill-opacity="1.000000" fill-rule="evenodd"/>
		<path id="Vector" d="M31.212 137.333L37.6417 137.333L37.6417 143.763L31.212 143.763L31.212 137.333Z" fill="#000000" fill-opacity="1.000000" fill-rule="evenodd"/>
		<path id="Vector" d="M37.4545 137.333L43.8842 137.333L43.8842 143.763L37.4545 143.763L37.4545 137.333Z" fill="#000000" fill-opacity="1.000000" fill-rule="evenodd"/>
		<path id="Vector" d="M49.9392 137.333L56.3689 137.333L56.3689 143.763L49.9392 143.763L49.9392 137.333Z" fill="#000000" fill-opacity="1.000000" fill-rule="evenodd"/>
		<path id="Vector" d="M56.1816 137.333L62.6113 137.333L62.6113 143.763L56.1816 143.763L56.1816 137.333Z" fill="#000000" fill-opacity="1.000000" fill-rule="evenodd"/>
		<path id="Vector" d="M62.424 137.333L68.8537 137.333L68.8537 143.763L62.424 143.763L62.424 137.333Z" fill="#000000" fill-opacity="1.000000" fill-rule="evenodd"/>
		<path id="Vector" d="M68.6666 137.333L75.0963 137.333L75.0963 143.763L68.6666 143.763L68.6666 137.333Z" fill="#000000" fill-opacity="1.000000" fill-rule="evenodd"/>
		<path id="Vector" d="M74.9089 137.333L81.3386 137.333L81.3386 143.763L74.9089 143.763L74.9089 137.333Z" fill="#000000" fill-opacity="1.000000" fill-rule="evenodd"/>
		<path id="Vector" d="M81.1514 137.333L87.5811 137.333L87.5811 143.763L81.1514 143.763L81.1514 137.333Z" fill="#000000" fill-opacity="1.000000" fill-rule="evenodd"/>
		<path id="Vector" d="M99.8787 137.333L106.308 137.333L106.308 143.763L99.8787 143.763L99.8787 137.333Z" fill="#000000" fill-opacity="1.000000" fill-rule="evenodd"/>
		<path id="Vector" d="M106.121 137.333L112.551 137.333L112.551 143.763L106.121 143.763L106.121 137.333Z" fill="#000000" fill-opacity="1.000000" fill-rule="evenodd"/>
		<path id="Vector" d="M112.364 137.333L118.793 137.333L118.793 143.763L112.364 143.763L112.364 137.333Z" fill="#000000" fill-opacity="1.000000" fill-rule="evenodd"/>
		<path id="Vector" d="M118.606 137.333L125.036 137.333L125.036 143.763L118.606 143.763L118.606 137.333Z" fill="#000000" fill-opacity="1.000000" fill-rule="evenodd"/>
		<path id="Vector" d="M137.333 137.333L143.763 137.333L143.763 143.763L137.333 143.763L137.333 137.333Z" fill="#000000" fill-opacity="1.000000" fill-rule="evenodd"/>
		<path id="Vector" d="M143.576 137.333L150.005 137.333L150.005 143.763L143.576 143.763L143.576 137.333Z" fill="#000000" fill-opacity="1.000000" fill-rule="evenodd"/>
		<path id="Vector" d="M149.818 137.333L156.248 137.333L156.248 143.763L149.818 143.763L149.818 137.333Z" fill="#000000" fill-opacity="1.000000" fill-rule="evenodd"/>
		<path id="Vector" d="M156.06 137.333L162.49 137.333L162.49 143.763L156.06 143.763L156.06 137.333Z" fill="#000000" fill-opacity="1.000000" fill-rule="evenodd"/>
		<path id="Vector" d="M162.303 137.333L168.733 137.333L168.733 143.763L162.303 143.763L162.303 137.333Z" fill="#000000" fill-opacity="1.000000" fill-rule="evenodd"/>
		<path id="Vector" d="M174.788 137.333L181.217 137.333L181.217 143.763L174.788 143.763L174.788 137.333Z" fill="#000000" fill-opacity="1.000000" fill-rule="evenodd"/>
		<path id="Vector" d="M181.03 137.333L187.46 137.333L187.46 143.763L181.03 143.763L181.03 137.333Z" fill="#000000" fill-opacity="1.000000" fill-rule="evenodd"/>
		<path id="Vector" d="M187.273 137.333L193.702 137.333L193.702 143.763L187.273 143.763L187.273 137.333Z" fill="#000000" fill-opacity="1.000000" fill-rule="evenodd"/>
		<path id="Vector" d="M62.424 143.576L68.8537 143.576L68.8537 150.005L62.424 150.005L62.424 143.576Z" fill="#000000" fill-opacity="1.000000" fill-rule="evenodd"/>
		<path id="Vector" d="M68.6666 143.576L75.0963 143.576L75.0963 150.005L68.6666 150.005L68.6666 143.576Z" fill="#000000" fill-opacity="1.000000" fill-rule="evenodd"/>
		<path id="Vector" d="M87.3938 143.576L93.8235 143.576L93.8235 150.005L87.3938 150.005L87.3938 143.576Z" fill="#000000" fill-opacity="1.000000" fill-rule="evenodd"/>
		<path id="Vector" d="M112.364 143.576L118.793 143.576L118.793 150.005L112.364 150.005L112.364 143.576Z" fill="#000000" fill-opacity="1.000000" fill-rule="evenodd"/>
		<path id="Vector" d="M118.606 143.576L125.036 143.576L125.036 150.005L118.606 150.005L118.606 143.576Z" fill="#000000" fill-opacity="1.000000" fill-rule="evenodd"/>
		<path id="Vector" d="M124.848 143.576L131.278 143.576L131.278 150.005L124.848 150.005L124.848 143.576Z" fill="#000000" fill-opacity="1.000000" fill-rule="evenodd"/>
		<path id="Vector" d="M137.333 143.576L143.763 143.576L143.763 150.005L137.333 150.005L137.333 143.576Z" fill="#000000" fill-opacity="1.000000" fill-rule="evenodd"/>
		<path id="Vector" d="M162.303 143.576L168.733 143.576L168.733 150.005L162.303 150.005L162.303 143.576Z" fill="#000000" fill-opacity="1.000000" fill-rule="evenodd"/>
		<path id="Vector" d="M168.545 143.576L174.975 143.576L174.975 150.005L168.545 150.005L168.545 143.576Z" fill="#000000" fill-opacity="1.000000" fill-rule="evenodd"/>
		<path id="Vector" d="M174.788 143.576L181.217 143.576L181.217 150.005L174.788 150.005L174.788 143.576Z" fill="#000000" fill-opacity="1.000000" fill-rule="evenodd"/>
		<path id="Vector" d="M181.03 143.576L187.46 143.576L187.46 150.005L181.03 150.005L181.03 143.576Z" fill="#000000" fill-opacity="1.000000" fill-rule="evenodd"/>
		<path id="Vector" d="M187.273 143.576L193.702 143.576L193.702 150.005L187.273 150.005L187.273 143.576Z" fill="#000000" fill-opacity="1.000000" fill-rule="evenodd"/>
		<path id="Vector" d="M68.6666 149.818L75.0963 149.818L75.0963 156.248L68.6666 156.248L68.6666 149.818Z" fill="#000000" fill-opacity="1.000000" fill-rule="evenodd"/>
		<path id="Vector" d="M81.1514 149.818L87.5811 149.818L87.5811 156.248L81.1514 156.248L81.1514 149.818Z" fill="#000000" fill-opacity="1.000000" fill-rule="evenodd"/>
		<path id="Vector" d="M87.3938 149.818L93.8235 149.818L93.8235 156.248L87.3938 156.248L87.3938 149.818Z" fill="#000000" fill-opacity="1.000000" fill-rule="evenodd"/>
		<path id="Vector" d="M106.121 149.818L112.551 149.818L112.551 156.248L106.121 156.248L106.121 149.818Z" fill="#000000" fill-opacity="1.000000" fill-rule="evenodd"/>
		<path id="Vector" d="M112.364 149.818L118.793 149.818L118.793 156.248L112.364 156.248L112.364 149.818Z" fill="#000000" fill-opacity="1.000000" fill-rule="evenodd"/>
		<path id="Vector" d="M118.606 149.818L125.036 149.818L125.036 156.248L118.606 156.248L118.606 149.818Z" fill="#000000" fill-opacity="1.000000" fill-rule="evenodd"/>
		<path id="Vector" d="M131.091 149.818L137.52 149.818L137.52 156.248L131.091 156.248L131.091 149.818Z" fill="#000000" fill-opacity="1.000000" fill-rule="evenodd"/>
		<path id="Vector" d="M137.333 149.818L143.763 149.818L143.763 156.248L137.333 156.248L137.333 149.818Z" fill="#000000" fill-opacity="1.000000" fill-rule="evenodd"/>
		<path id="Vector" d="M149.818 149.818L156.248 149.818L156.248 156.248L149.818 156.248L149.818 149.818Z" fill="#000000" fill-opacity="1.000000" fill-rule="evenodd"/>
		<path id="Vector" d="M162.303 149.818L168.733 149.818L168.733 156.248L162.303 156.248L162.303 149.818Z" fill="#000000" fill-opacity="1.000000" fill-rule="evenodd"/>
		<path id="Vector" d="M168.545 149.818L174.975 149.818L174.975 156.248L168.545 156.248L168.545 149.818Z" fill="#000000" fill-opacity="1.000000" fill-rule="evenodd"/>
		<path id="Vector" d="M174.788 149.818L181.217 149.818L181.217 156.248L174.788 156.248L174.788 149.818Z" fill="#000000" fill-opacity="1.000000" fill-rule="evenodd"/>
		<path id="Vector" d="M62.424 156.061L68.8537 156.061L68.8537 162.49L62.424 162.49L62.424 156.061Z" fill="#000000" fill-opacity="1.000000" fill-rule="evenodd"/>
		<path id="Vector" d="M68.6666 156.061L75.0963 156.061L75.0963 162.49L68.6666 162.49L68.6666 156.061Z" fill="#000000" fill-opacity="1.000000" fill-rule="evenodd"/>
		<path id="Vector" d="M74.9089 156.061L81.3386 156.061L81.3386 162.49L74.9089 162.49L74.9089 156.061Z" fill="#000000" fill-opacity="1.000000" fill-rule="evenodd"/>
		<path id="Vector" d="M81.1514 156.061L87.5811 156.061L87.5811 162.49L81.1514 162.49L81.1514 156.061Z" fill="#000000" fill-opacity="1.000000" fill-rule="evenodd"/>
		<path id="Vector" d="M87.3938 156.061L93.8235 156.061L93.8235 162.49L87.3938 162.49L87.3938 156.061Z" fill="#000000" fill-opacity="1.000000" fill-rule="evenodd"/>
		<path id="Vector" d="M99.8787 156.061L106.308 156.061L106.308 162.49L99.8787 162.49L99.8787 156.061Z" fill="#000000" fill-opacity="1.000000" fill-rule="evenodd"/>
		<path id="Vector" d="M106.121 156.061L112.551 156.061L112.551 162.49L106.121 162.49L106.121 156.061Z" fill="#000000" fill-opacity="1.000000" fill-rule="evenodd"/>
		<path id="Vector" d="M112.364 156.061L118.793 156.061L118.793 162.49L112.364 162.49L112.364 156.061Z" fill="#000000" fill-opacity="1.000000" fill-rule="evenodd"/>
		<path id="Vector" d="M131.091 156.061L137.52 156.061L137.52 162.49L131.091 162.49L131.091 156.061Z" fill="#000000" fill-opacity="1.000000" fill-rule="evenodd"/>
		<path id="Vector" d="M137.333 156.061L143.763 156.061L143.763 162.49L137.333 162.49L137.333 156.061Z" fill="#000000" fill-opacity="1.000000" fill-rule="evenodd"/>
		<path id="Vector" d="M162.303 156.061L168.733 156.061L168.733 162.49L162.303 162.49L162.303 156.061Z" fill="#000000" fill-opacity="1.000000" fill-rule="evenodd"/>
		<path id="Vector" d="M181.03 156.061L187.46 156.061L187.46 162.49L181.03 162.49L181.03 156.061Z" fill="#000000" fill-opacity="1.000000" fill-rule="evenodd"/>
		<path id="Vector" d="M187.273 156.061L193.702 156.061L193.702 162.49L187.273 162.49L187.273 156.061Z" fill="#000000" fill-opacity="1.000000" fill-rule="evenodd"/>
		<path id="Vector" d="M62.424 162.303L68.8537 162.303L68.8537 168.733L62.424 168.733L62.424 162.303Z" fill="#000000" fill-opacity="1.000000" fill-rule="evenodd"/>
		<path id="Vector" d="M68.6666 162.303L75.0963 162.303L75.0963 168.733L68.6666 168.733L68.6666 162.303Z" fill="#000000" fill-opacity="1.000000" fill-rule="evenodd"/>
		<path id="Vector" d="M87.3938 162.303L93.8235 162.303L93.8235 168.733L87.3938 168.733L87.3938 162.303Z" fill="#000000" fill-opacity="1.000000" fill-rule="evenodd"/>
		<path id="Vector" d="M106.121 162.303L112.551 162.303L112.551 168.733L106.121 168.733L106.121 162.303Z" fill="#000000" fill-opacity="1.000000" fill-rule="evenodd"/>
		<path id="Vector" d="M118.606 162.303L125.036 162.303L125.036 168.733L118.606 168.733L118.606 162.303Z" fill="#000000" fill-opacity="1.000000" fill-rule="evenodd"/>
		<path id="Vector" d="M137.333 162.303L143.763 162.303L143.763 168.733L137.333 168.733L137.333 162.303Z" fill="#000000" fill-opacity="1.000000" fill-rule="evenodd"/>
		<path id="Vector" d="M143.576 162.303L150.005 162.303L150.005 168.733L143.576 168.733L143.576 162.303Z" fill="#000000" fill-opacity="1.000000" fill-rule="evenodd"/>
		<path id="Vector" d="M149.818 162.303L156.248 162.303L156.248 168.733L149.818 168.733L149.818 162.303Z" fill="#000000" fill-opacity="1.000000" fill-rule="evenodd"/>
		<path id="Vector" d="M156.06 162.303L162.49 162.303L162.49 168.733L156.06 168.733L156.06 162.303Z" fill="#000000" fill-opacity="1.000000" fill-rule="evenodd"/>
		<path id="Vector" d="M162.303 162.303L168.733 162.303L168.733 168.733L162.303 168.733L162.303 162.303Z" fill="#000000" fill-opacity="1.000000" fill-rule="evenodd"/>
		<path id="Vector" d="M174.788 162.303L181.217 162.303L181.217 168.733L174.788 168.733L174.788 162.303Z" fill="#000000" fill-opacity="1.000000" fill-rule="evenodd"/>
		<path id="Vector" d="M62.424 168.545L68.8537 168.545L68.8537 174.975L62.424 174.975L62.424 168.545Z" fill="#000000" fill-opacity="1.000000" fill-rule="evenodd"/>
		<path id="Vector" d="M68.6666 168.545L75.0963 168.545L75.0963 174.975L68.6666 174.975L68.6666 168.545Z" fill="#000000" fill-opacity="1.000000" fill-rule="evenodd"/>
		<path id="Vector" d="M87.3938 168.545L93.8235 168.545L93.8235 174.975L87.3938 174.975L87.3938 168.545Z" fill="#000000" fill-opacity="1.000000" fill-rule="evenodd"/>
		<path id="Vector" d="M99.8787 168.545L106.308 168.545L106.308 174.975L99.8787 174.975L99.8787 168.545Z" fill="#000000" fill-opacity="1.000000" fill-rule="evenodd"/>
		<path id="Vector" d="M112.364 168.545L118.793 168.545L118.793 174.975L112.364 174.975L112.364 168.545Z" fill="#000000" fill-opacity="1.000000" fill-rule="evenodd"/>
		<path id="Vector" d="M118.606 168.545L125.036 168.545L125.036 174.975L118.606 174.975L118.606 168.545Z" fill="#000000" fill-opacity="1.000000" fill-rule="evenodd"/>
		<path id="Vector" d="M124.848 168.545L131.278 168.545L131.278 174.975L124.848 174.975L124.848 168.545Z" fill="#000000" fill-opacity="1.000000" fill-rule="evenodd"/>
		<path id="Vector" d="M131.091 168.545L137.52 168.545L137.52 174.975L131.091 174.975L131.091 168.545Z" fill="#000000" fill-opacity="1.000000" fill-rule="evenodd"/>
		<path id="Vector" d="M156.06 168.545L162.49 168.545L162.49 174.975L156.06 174.975L156.06 168.545Z" fill="#000000" fill-opacity="1.000000" fill-rule="evenodd"/>
		<path id="Vector" d="M168.545 168.545L174.975 168.545L174.975 174.975L168.545 174.975L168.545 168.545Z" fill="#000000" fill-opacity="1.000000" fill-rule="evenodd"/>
		<path id="Vector" d="M174.788 168.545L181.217 168.545L181.217 174.975L174.788 174.975L174.788 168.545Z" fill="#000000" fill-opacity="1.000000" fill-rule="evenodd"/>
		<path id="Vector" d="M181.03 168.545L187.46 168.545L187.46 174.975L181.03 174.975L181.03 168.545Z" fill="#000000" fill-opacity="1.000000" fill-rule="evenodd"/>
		<path id="Vector" d="M187.273 168.545L193.702 168.545L193.702 174.975L187.273 174.975L187.273 168.545Z" fill="#000000" fill-opacity="1.000000" fill-rule="evenodd"/>
		<path id="Vector" d="M62.424 174.788L68.8537 174.788L68.8537 181.218L62.424 181.218L62.424 174.788Z" fill="#000000" fill-opacity="1.000000" fill-rule="evenodd"/>
		<path id="Vector" d="M68.6666 174.788L75.0963 174.788L75.0963 181.218L68.6666 181.218L68.6666 174.788Z" fill="#000000" fill-opacity="1.000000" fill-rule="evenodd"/>
		<path id="Vector" d="M74.9089 174.788L81.3386 174.788L81.3386 181.218L74.9089 181.218L74.9089 174.788Z" fill="#000000" fill-opacity="1.000000" fill-rule="evenodd"/>
		<path id="Vector" d="M99.8787 174.788L106.308 174.788L106.308 181.218L99.8787 181.218L99.8787 174.788Z" fill="#000000" fill-opacity="1.000000" fill-rule="evenodd"/>
		<path id="Vector" d="M106.121 174.788L112.551 174.788L112.551 181.218L106.121 181.218L106.121 174.788Z" fill="#000000" fill-opacity="1.000000" fill-rule="evenodd"/>
		<path id="Vector" d="M112.364 174.788L118.793 174.788L118.793 181.218L112.364 181.218L112.364 174.788Z" fill="#000000" fill-opacity="1.000000" fill-rule="evenodd"/>
		<path id="Vector" d="M124.848 174.788L131.278 174.788L131.278 181.218L124.848 181.218L124.848 174.788Z" fill="#000000" fill-opacity="1.000000" fill-rule="evenodd"/>
		<path id="Vector" d="M149.818 174.788L156.248 174.788L156.248 181.218L149.818 181.218L149.818 174.788Z" fill="#000000" fill-opacity="1.000000" fill-rule="evenodd"/>
		<path id="Vector" d="M156.06 174.788L162.49 174.788L162.49 181.218L156.06 181.218L156.06 174.788Z" fill="#000000" fill-opacity="1.000000" fill-rule="evenodd"/>
		<path id="Vector" d="M162.303 174.788L168.733 174.788L168.733 181.218L162.303 181.218L162.303 174.788Z" fill="#000000" fill-opacity="1.000000" fill-rule="evenodd"/>
		<path id="Vector" d="M168.545 174.788L174.975 174.788L174.975 181.218L168.545 181.218L168.545 174.788Z" fill="#000000" fill-opacity="1.000000" fill-rule="evenodd"/>
		<path id="Vector" d="M174.788 174.788L181.217 174.788L181.217 181.218L174.788 181.218L174.788 174.788Z" fill="#000000" fill-opacity="1.000000" fill-rule="evenodd"/>
		<path id="Vector" d="M181.03 174.788L187.46 174.788L187.46 181.218L181.03 181.218L181.03 174.788Z" fill="#000000" fill-opacity="1.000000" fill-rule="evenodd"/>
		<path id="Vector" d="M68.6666 181.03L75.0963 181.03L75.0963 187.46L68.6666 187.46L68.6666 181.03Z" fill="#000000" fill-opacity="1.000000" fill-rule="evenodd"/>
		<path id="Vector" d="M87.3938 181.03L93.8235 181.03L93.8235 187.46L87.3938 187.46L87.3938 181.03Z" fill="#000000" fill-opacity="1.000000" fill-rule="evenodd"/>
		<path id="Vector" d="M137.333 181.03L143.763 181.03L143.763 187.46L137.333 187.46L137.333 181.03Z" fill="#000000" fill-opacity="1.000000" fill-rule="evenodd"/>
		<path id="Vector" d="M156.06 181.03L162.49 181.03L162.49 187.46L156.06 187.46L156.06 181.03Z" fill="#000000" fill-opacity="1.000000" fill-rule="evenodd"/>
		<path id="Vector" d="M168.545 181.03L174.975 181.03L174.975 187.46L168.545 187.46L168.545 181.03Z" fill="#000000" fill-opacity="1.000000" fill-rule="evenodd"/>
		<path id="Vector" d="M181.03 181.03L187.46 181.03L187.46 187.46L181.03 187.46L181.03 181.03Z" fill="#000000" fill-opacity="1.000000" fill-rule="evenodd"/>
		<path id="Vector" d="M62.424 187.273L68.8537 187.273L68.8537 193.702L62.424 193.702L62.424 187.273Z" fill="#000000" fill-opacity="1.000000" fill-rule="evenodd"/>
		<path id="Vector" d="M68.6666 187.273L75.0963 187.273L75.0963 193.702L68.6666 193.702L68.6666 187.273Z" fill="#000000" fill-opacity="1.000000" fill-rule="evenodd"/>
		<path id="Vector" d="M81.1514 187.273L87.5811 187.273L87.5811 193.702L81.1514 193.702L81.1514 187.273Z" fill="#000000" fill-opacity="1.000000" fill-rule="evenodd"/>
		<path id="Vector" d="M87.3938 187.273L93.8235 187.273L93.8235 193.702L87.3938 193.702L87.3938 187.273Z" fill="#000000" fill-opacity="1.000000" fill-rule="evenodd"/>
		<path id="Vector" d="M93.6362 187.273L100.066 187.273L100.066 193.702L93.6362 193.702L93.6362 187.273Z" fill="#000000" fill-opacity="1.000000" fill-rule="evenodd"/>
		<path id="Vector" d="M99.8787 187.273L106.308 187.273L106.308 193.702L99.8787 193.702L99.8787 187.273Z" fill="#000000" fill-opacity="1.000000" fill-rule="evenodd"/>
		<path id="Vector" d="M106.121 187.273L112.551 187.273L112.551 193.702L106.121 193.702L106.121 187.273Z" fill="#000000" fill-opacity="1.000000" fill-rule="evenodd"/>
		<path id="Vector" d="M118.606 187.273L125.036 187.273L125.036 193.702L118.606 193.702L118.606 187.273Z" fill="#000000" fill-opacity="1.000000" fill-rule="evenodd"/>
		<path id="Vector" d="M131.091 187.273L137.52 187.273L137.52 193.702L131.091 193.702L131.091 187.273Z" fill="#000000" fill-opacity="1.000000" fill-rule="evenodd"/>
		<path id="Vector" d="M143.576 187.273L150.005 187.273L150.005 193.702L143.576 193.702L143.576 187.273Z" fill="#000000" fill-opacity="1.000000" fill-rule="evenodd"/>
		<path id="Vector" d="M156.06 187.273L162.49 187.273L162.49 193.702L156.06 193.702L156.06 187.273Z" fill="#000000" fill-opacity="1.000000" fill-rule="evenodd"/>
		<path id="Vector" d="M162.303 187.273L168.733 187.273L168.733 193.702L162.303 193.702L162.303 187.273Z" fill="#000000" fill-opacity="1.000000" fill-rule="evenodd"/>
		<path id="Vector" d="M168.545 187.273L174.975 187.273L174.975 193.702L168.545 193.702L168.545 187.273Z" fill="#000000" fill-opacity="1.000000" fill-rule="evenodd"/>
		<path id="Vector" d="M174.788 187.273L181.217 187.273L181.217 193.702L174.788 193.702L174.788 187.273Z" fill="#000000" fill-opacity="1.000000" fill-rule="evenodd"/>
		<path id="Vector" d="M12.4848 12.4849L12.4848 56.1819L56.1818 56.1819L56.1818 12.4849L12.4848 12.4849ZM49.9393 49.9395L18.7272 49.9395L18.7272 18.7273L49.9393 18.7273L49.9393 49.9395Z" fill="#000000" fill-opacity="1.000000" fill-rule="nonzero"/>
		<path id="Vector" d="M149.818 12.4849L149.818 56.1819L193.515 56.1819L193.515 12.4849L149.818 12.4849ZM187.273 49.9395L156.06 49.9395L156.06 18.7273L187.273 18.7273L187.273 49.9395Z" fill="#000000" fill-opacity="1.000000" fill-rule="nonzero"/>
		<path id="Vector" d="M12.4847 149.818L12.4847 193.515L56.1817 193.515L56.1817 149.818L12.4847 149.818ZM49.9393 187.273L18.7272 187.273L18.7272 156.061L49.9393 156.061L49.9393 187.273Z" fill="#000000" fill-opacity="1.000000" fill-rule="nonzero"/>
		<path id="Vector" d="M24.9695 24.9697L43.6967 24.9697L43.6967 43.697L24.9695 43.697L24.9695 24.9697Z" fill="#000000" fill-opacity="1.000000" fill-rule="evenodd"/>
		<path id="Vector" d="M162.303 24.9697L181.03 24.9697L181.03 43.697L162.303 43.697L162.303 24.9697Z" fill="#000000" fill-opacity="1.000000" fill-rule="evenodd"/>
		<path id="Vector" d="M24.9695 162.303L43.6967 162.303L43.6967 181.03L24.9695 181.03L24.9695 162.303Z" fill="#000000" fill-opacity="1.000000" fill-rule="evenodd"/>
	</g>
</svg>
