<svg width="27.000000" height="27.000000" viewBox="0 0 27 27" fill="none" xmlns="http://www.w3.org/2000/svg" xmlns:xlink="http://www.w3.org/1999/xlink">
	<desc>
			Created with Pixso.
	</desc>
	<defs/>
	<path id="Vector" d="M4.97055 0L22.0294 0C23.3477 0 24.612 0.543213 25.5442 1.51025C26.4763 2.47729 27 3.78906 27 5.15649L27 21.8435C27 23.2109 26.4763 24.5227 25.5442 25.4897C24.612 26.4568 23.3477 27 22.0294 27L4.97055 27C3.65228 27 2.388 26.4568 1.45584 25.4897C0.523682 24.5227 0 23.2109 0 21.8435L0 5.15649C0 3.78906 0.523682 2.47729 1.45584 1.51025C2.388 0.543213 3.65228 0 4.97055 0Z" fill="#1FAEE9" fill-opacity="1.000000" fill-rule="nonzero"/>
	<path id="Vector" d="M20.7259 9.37524C20.4192 9.51685 20.1016 9.63184 19.7764 9.71899C20.1267 9.3501 20.3842 8.89819 20.5265 8.40283C20.5384 8.37134 20.5403 8.33691 20.5318 8.30444C20.5233 8.27173 20.5049 8.24292 20.4794 8.22217C20.4539 8.20117 20.4225 8.18921 20.39 8.18823C20.3574 8.18726 20.3254 8.19702 20.2986 8.21606C19.839 8.49585 19.3435 8.70752 18.827 8.84473L18.732 8.84473C18.6374 8.84814 18.5453 8.81274 18.4756 8.74658C17.9271 8.26392 17.2303 7.99927 16.5103 8C16.1885 8.00098 15.8686 8.05078 15.5608 8.14722C15.0781 8.30249 14.643 8.58545 14.2983 8.96777C13.9536 9.3501 13.7113 9.81909 13.5954 10.3279C13.5043 10.7034 13.4786 11.0925 13.5194 11.4771C13.5194 11.4771 13.5194 11.5459 13.5194 11.5654C13.4918 11.5762 13.4615 11.5762 13.4339 11.5654C12.3738 11.4736 11.3425 11.1619 10.4012 10.6487C9.46005 10.1357 8.6283 9.43213 7.95547 8.57959C7.94177 8.55713 7.92282 8.53882 7.90042 8.52612C7.87802 8.51343 7.85287 8.50684 7.8273 8.50684C7.80173 8.50684 7.77658 8.51343 7.75418 8.52612C7.73178 8.53882 7.71283 8.55713 7.69913 8.57959C7.43204 9.05713 7.29123 9.59937 7.29083 10.1511C7.2869 10.5671 7.36386 10.98 7.51721 11.3647C7.67053 11.7495 7.89706 12.0984 8.18335 12.3906C7.94415 12.3325 7.71402 12.24 7.49973 12.1157C7.47583 12.1023 7.4491 12.0955 7.422 12.0957C7.3949 12.0962 7.36829 12.1035 7.34464 12.1172C7.32098 12.1309 7.30106 12.1504 7.28668 12.1743C7.27228 12.198 7.26395 12.2251 7.26236 12.2532L7.23389 12.2532C7.2283 12.8579 7.39209 13.4517 7.70547 13.9624C8.01883 14.4729 8.46841 14.8789 8.99991 15.1311L8.96191 15.1311C8.78946 15.1309 8.61752 15.1111 8.44922 15.0723C8.42239 15.0698 8.39545 15.0742 8.37057 15.0847C8.34567 15.0952 8.32355 15.1118 8.30597 15.1328C8.28839 15.1538 8.27585 15.179 8.26941 15.2061C8.26294 15.2329 8.26273 15.2612 8.2688 15.2883C8.44104 15.835 8.7554 16.322 9.17743 16.6963C9.59943 17.0706 10.1129 17.3174 10.6615 17.4099C9.74307 18.0552 8.65735 18.3975 7.54721 18.3921L7.23389 18.3921C7.18253 18.3921 7.13254 18.4094 7.09146 18.4412C7.05038 18.4731 7.02039 18.5181 7.00601 18.5688C6.99463 18.6213 6.99951 18.6763 7.01996 18.7256C7.04041 18.7749 7.07541 18.8164 7.11993 18.844C8.28705 19.5308 9.59415 19.9233 10.9353 19.9897C12.2765 20.0564 13.6139 19.7952 14.8392 19.2271C15.8289 18.7493 16.7116 18.0635 17.4312 17.2134C18.7957 15.6187 19.5577 13.5676 19.577 11.4377L19.577 11.3887C19.5795 11.3101 19.5976 11.2329 19.6302 11.1619C19.6629 11.0908 19.7095 11.0276 19.7669 10.9763C20.2333 10.5906 20.64 10.1335 20.9728 9.62061C20.9922 9.59058 21.0017 9.55493 20.9998 9.5188C20.9979 9.48267 20.9846 9.44824 20.9622 9.42041C20.9397 9.39282 20.9091 9.37354 20.8751 9.36523C20.841 9.35718 20.8054 9.3606 20.7734 9.37524L20.7259 9.37524Z" fill="#FFFFFF" fill-opacity="1.000000" fill-rule="nonzero"/>
</svg>
